<?xml version="1.0" encoding="UTF-8"?>
<svg version="1.1" xmlns="http://www.w3.org/2000/svg" width="160" height="216">
<path d="M0 0 C52.8 0 105.6 0 160 0 C160 71.28 160 142.56 160 216 C107.2 216 54.4 216 0 216 C0 144.72 0 73.44 0 0 Z " fill="#302122" transform="translate(0,0)"/>
<path d="M0 0 C23.1 0 46.2 0 70 0 C70 71.28 70 142.56 70 216 C17.2 216 -35.6 216 -90 216 C-90 190 -90 190 -85 178 C-84.15065464 175.20361731 -83.35570688 172.44755481 -82.625 169.625 C-79.39343741 158.04806416 -74.72754466 147.54185222 -66 139 C-65.42894531 139.33386719 -64.85789062 139.66773438 -64.26953125 140.01171875 C-60.48805845 141.65838419 -56.94761618 140.85554139 -53 140 C-51.2984375 139.195625 -51.2984375 139.195625 -49.5625 138.375 C-44.85451499 136.55788298 -40.88101883 136.86507779 -36 138 C-32.51054314 140.32630458 -32.52373476 140.91992803 -31.625 144.8125 C-29.98686352 150.70300112 -27.39316089 153.30727644 -22.4375 156.8125 C-14.06350991 159.70533294 -5.90445876 158.07861698 2.30859375 155.36328125 C5.81072435 154.89056986 7.21412566 155.95230652 10 158 C9.01 158.99 8.02 159.98 7 161 C7.9075 160.505 8.815 160.01 9.75 159.5 C13 158 13 158 17 158 C17 157.01 17 156.02 17 155 C18.97746603 154.26919734 20.98072489 153.60578253 23 153 C23.66 153.33 24.32 153.66 25 154 C25.33 153.01 25.66 152.02 26 151 C26.78375 150.773125 27.5675 150.54625 28.375 150.3125 C31.48714219 148.75642891 31.65286396 148.03209524 32.8125 144.875 C33.22664606 143.58908793 33.62846444 142.29886417 34 141 C37.45660848 139.97276494 40.40752011 139.5444147 44 140 C48.10577854 142.55516456 51.54450833 145.62991022 55 149 C51.80568766 145.76273893 48.60320996 142.77961911 45 140 C45.33 138.68 45.66 137.36 46 136 C44.02 135.67 42.04 135.34 40 135 C39.67 132.69 39.34 130.38 39 128 C40.32 128 41.64 128 43 128 C42.4121875 126.948125 42.4121875 126.948125 41.8125 125.875 C40.6967068 121.92680867 42.11242555 120.5654184 44 117 C44.061875 115.700625 44.12375 114.40125 44.1875 113.0625 C44.53564677 109.26915077 45.85830233 107.7523396 48.6875 105.25 C52.00286197 102.63573608 55.46428761 100.30232435 59 98 C62.15055802 95.52456155 62.90171063 92.80177091 64 89 C60.535 89.495 60.535 89.495 57 90 C55.875 88.3125 55.875 88.3125 55 86 C55.30164063 85.27296875 55.60328125 84.5459375 55.9140625 83.796875 C57.6207613 79.40120471 57.45678414 74.94983148 57.65625 70.27734375 C57.97659227 67.22317144 58.53390726 65.61759877 60 63 C60.07272562 60.44539786 60.07272562 60.44539786 59 58 C57.7934375 57.13375 57.7934375 57.13375 56.5625 56.25 C52.79407295 52.94113722 52.78973118 49.88197458 52 45 C54.97 44.01 57.94 43.02 61 42 C60.67 41.34 60.34 40.68 60 40 C58.88625 40.495 58.88625 40.495 57.75 41 C55 42 55 42 51 42 C45.78865193 32.61572746 45.78865193 32.61572746 45.5625 27.6875 C45.31686281 23.82956894 45.31686281 23.82956894 42.4375 21.125 C38.89546525 18.56542744 35.25021431 17.80607513 31 17 C31 16.34 31 15.68 31 15 C30.67 15.66 30.34 16.32 30 17 C29.34 17 28.68 17 28 17 C27.443125 15.6078125 27.443125 15.6078125 26.875 14.1875 C24.66667837 10.43335323 23.02376758 9.50891284 19 8 C18.01 8 17.02 8 16 8 C16.99 8.99 17.98 9.98 19 11 C18.67 11.66 18.34 12.32 18 13 C17.45472656 12.46890625 16.90945312 11.9378125 16.34765625 11.390625 C11.24933992 6.61476629 6.58282675 3.3654602 0 1 C0 0.67 0 0.34 0 0 Z " fill="#E82F1A" transform="translate(90,0)"/>
<path d="M0 0 C83.18181818 0 83.18181818 0 90 5 C89.34 5.33 88.68 5.66 88 6 C87.01 5.67 86.02 5.34 85 5 C74.76226828 3.98902399 66.72739568 5.38156894 57.11206055 8.78198242 C49.38856387 11.42721075 42.14461222 11.9775321 34 12 C36.64 13.32 39.28 14.64 42 16 C38.91364357 18.48234395 35.74837709 20.21420005 32.1875 21.9375 C28.77934408 23.5961909 25.49910907 25.26289698 22.3125 27.3125 C18.19512193 29.41003222 14.56559726 29.79294343 10 30 C10.33 30.66 10.66 31.32 11 32 C8.69 31.67 6.38 31.34 4 31 C3.09079234 42.36880658 3.09079234 42.36880658 7.57421875 52.48828125 C13.26426376 58.52128788 17.80666619 59.82952374 26 61 C25.67 65.95 25.34 70.9 25 76 C22.525 76.495 22.525 76.495 20 77 C20.33 79.31 20.66 81.62 21 84 C23.64551056 84.19386492 26.29117783 84.38038267 28.9375 84.5625 C29.69224609 84.61857422 30.44699219 84.67464844 31.22460938 84.73242188 C33.14745958 84.86176157 35.07389548 84.93516912 37 85 C37.33 84.67 37.66 84.34 38 84 C35.69 84 33.38 84 31 84 C31 82 31 80 31 78 C30.34 78 29.68 78 29 78 C29.33 79.98 29.66 81.96 30 84 C28.02 84 26.04 84 24 84 C24.495 82.515 24.495 82.515 25 81 C25.33 81 25.66 81 26 81 C25.98839844 79.79601562 25.97679688 78.59203125 25.96484375 77.3515625 C25.95546566 75.77604321 25.94636548 74.20052225 25.9375 72.625 C25.92912109 71.8309375 25.92074219 71.036875 25.91210938 70.21875 C25.88671875 64.2265625 25.88671875 64.2265625 27 62 C28.423125 62.0309375 28.423125 62.0309375 29.875 62.0625 C32.90666283 62.22551826 32.90666283 62.22551826 35 61 C35.99 61.33 36.98 61.66 38 62 C38 61.34 38 60.68 38 60 C38.66 60 39.32 60 40 60 C40.66 61.32 41.32 62.64 42 64 C42.66 63.01 43.32 62.02 44 61 C45.65376711 62.65376711 45.63471208 64.80948364 46.0625 67.0625 C46.23910156 67.98160156 46.41570313 68.90070313 46.59765625 69.84765625 C46.73042969 70.55792969 46.86320312 71.26820312 47 72 C47.66 71.34 48.32 70.68 49 70 C52 75.75 52 75.75 52 78 C52.9590625 78.37125 52.9590625 78.37125 53.9375 78.75 C56 80 56 80 56.75 82.125 C56.8325 82.74375 56.915 83.3625 57 84 C59.64 84.33 62.28 84.66 65 85 C65 85.33 65 85.66 65 86 C60.5621439 87.11165232 56.23043614 87.11527763 51.6875 87.0625 C50.94693359 87.05798828 50.20636719 87.05347656 49.44335938 87.04882812 C47.62887101 87.03712175 45.81442466 87.01918898 44 87 C48.29 87.33 52.58 87.66 57 88 C57.34681631 97.1906323 56.42197188 108.43929569 51.5 116.4375 C51.005 116.953125 50.51 117.46875 50 118 C49.34 118 48.68 118 48 118 C47.67 118.66 47.34 119.32 47 120 C44.8125 120.625 44.8125 120.625 42 121 C40.5459375 121.309375 40.5459375 121.309375 39.0625 121.625 C35.27369974 120.85177546 34.87605933 119.93175494 32.75 116.8125 C29.84021421 112.0958311 27.87207903 107.73821585 27.375 102.1875 C27.30023437 101.39730469 27.22546875 100.60710937 27.1484375 99.79296875 C27.09945313 99.20128906 27.05046875 98.60960938 27 98 C25.02 97.67 23.04 97.34 21 97 C21.66 98.32 22.32 99.64 23 101 C22.2265625 101.5878125 22.2265625 101.5878125 21.4375 102.1875 C19.69997735 103.95907597 19.69997735 103.95907597 20.1875 106.625 C20.74644234 109.16552003 20.74644234 109.16552003 23 110 C23.50585694 116.07028325 22.93300812 120.11165313 19.77734375 125.37109375 C19.52082031 125.90863281 19.26429687 126.44617188 19 127 C19.495 127.99 19.495 127.99 20 129 C20.144375 129.94875 20.28875 130.8975 20.4375 131.875 C20.94773217 134.70962315 21.66462039 136.50224542 23 139 C22.154375 139.86625 21.30875 140.7325 20.4375 141.625 C11.3232393 152.42946398 7.68371876 166.34888704 3.75854492 179.63500977 C2.95375429 182.14418481 2.00474659 184.56476675 1 187 C0.67 187 0.34 187 0 187 C0 125.29 0 63.58 0 0 Z " fill="#A6D1A3" transform="translate(0,0)"/>
<path d="M0 0 C23.1 0 46.2 0 70 0 C70 53.46 70 106.92 70 162 C68.35 160.35 66.7 158.7 65 157 C58.60081341 150.96925143 52.05055994 145.25745458 45 140 C45.33 138.68 45.66 137.36 46 136 C44.02 135.67 42.04 135.34 40 135 C39.505 131.535 39.505 131.535 39 128 C40.32 128 41.64 128 43 128 C42.4121875 126.948125 42.4121875 126.948125 41.8125 125.875 C40.6967068 121.92680867 42.11242555 120.5654184 44 117 C44.061875 115.700625 44.12375 114.40125 44.1875 113.0625 C44.53564677 109.26915077 45.85830233 107.7523396 48.6875 105.25 C52.00286197 102.63573608 55.46428761 100.30232435 59 98 C62.15055802 95.52456155 62.90171063 92.80177091 64 89 C60.535 89.495 60.535 89.495 57 90 C55.875 88.3125 55.875 88.3125 55 86 C55.30164063 85.27296875 55.60328125 84.5459375 55.9140625 83.796875 C57.6207613 79.40120471 57.45678414 74.94983148 57.65625 70.27734375 C57.97659227 67.22317144 58.53390726 65.61759877 60 63 C60.07272562 60.44539786 60.07272562 60.44539786 59 58 C58.195625 57.4225 57.39125 56.845 56.5625 56.25 C52.79407295 52.94113722 52.78973118 49.88197458 52 45 C54.97 44.01 57.94 43.02 61 42 C60.67 41.34 60.34 40.68 60 40 C58.88625 40.495 58.88625 40.495 57.75 41 C55 42 55 42 51 42 C45.78865193 32.61572746 45.78865193 32.61572746 45.5625 27.6875 C45.31686281 23.82956894 45.31686281 23.82956894 42.4375 21.125 C38.89546525 18.56542744 35.25021431 17.80607513 31 17 C31 16.34 31 15.68 31 15 C30.67 15.66 30.34 16.32 30 17 C29.34 17 28.68 17 28 17 C27.62875 16.071875 27.2575 15.14375 26.875 14.1875 C24.66667837 10.43335323 23.02376758 9.50891284 19 8 C18.01 8 17.02 8 16 8 C16.99 8.99 17.98 9.98 19 11 C18.67 11.66 18.34 12.32 18 13 C17.45472656 12.46890625 16.90945312 11.9378125 16.34765625 11.390625 C11.24933992 6.61476629 6.58282675 3.3654602 0 1 C0 0.67 0 0.34 0 0 Z " fill="#A6D1A4" transform="translate(90,0)"/>
<path d="M0 0 C0.66 0 1.32 0 2 0 C2.66 1.32 3.32 2.64 4 4 C4.66 3.01 5.32 2.02 6 1 C7.65376711 2.65376711 7.63471208 4.80948364 8.0625 7.0625 C8.23910156 7.98160156 8.41570313 8.90070313 8.59765625 9.84765625 C8.79681641 10.91306641 8.79681641 10.91306641 9 12 C9.66 11.34 10.32 10.68 11 10 C14 15.75 14 15.75 14 18 C14.639375 18.2475 15.27875 18.495 15.9375 18.75 C18 20 18 20 18.75 22.125 C18.8325 22.74375 18.915 23.3625 19 24 C21.64 24.33 24.28 24.66 27 25 C27 25.33 27 25.66 27 26 C22.5621439 27.11165232 18.23043614 27.11527763 13.6875 27.0625 C12.94693359 27.05798828 12.20636719 27.05347656 11.44335938 27.04882812 C9.62887101 27.03712175 7.81442466 27.01918898 6 27 C10.29 27.33 14.58 27.66 19 28 C19.34681631 37.1906323 18.42197188 48.43929569 13.5 56.4375 C13.005 56.953125 12.51 57.46875 12 58 C11.34 58 10.68 58 10 58 C9.505 58.99 9.505 58.99 9 60 C6.8125 60.625 6.8125 60.625 4 61 C3.030625 61.20625 2.06125 61.4125 1.0625 61.625 C-2.72630026 60.85177546 -3.12394067 59.93175494 -5.25 56.8125 C-8.15978579 52.0958311 -10.12792097 47.73821585 -10.625 42.1875 C-10.69976563 41.39730469 -10.77453125 40.60710937 -10.8515625 39.79296875 C-10.90054687 39.20128906 -10.94953125 38.60960937 -11 38 C-15.48290038 36.95746503 -17.84154949 37.08936058 -22 39 C-22.99 39 -23.98 39 -25 39 C-26.95021536 32.53991163 -27.22262303 26.7281627 -27 20 C-23.78832601 18.26747651 -21.68142974 17.7015057 -18 18 C-17 19 -17 19 -16.9375 21.5625 C-16.958125 22.366875 -16.97875 23.17125 -17 24 C-14.35448944 24.19386492 -11.70882217 24.38038267 -9.0625 24.5625 C-8.30775391 24.61857422 -7.55300781 24.67464844 -6.77539062 24.73242188 C-4.85254042 24.86176157 -2.92610452 24.93516912 -1 25 C-0.67 24.67 -0.34 24.34 0 24 C-2.31 24 -4.62 24 -7 24 C-7 22 -7 20 -7 18 C-7.66 18 -8.32 18 -9 18 C-8.67 19.98 -8.34 21.96 -8 24 C-9.98 24 -11.96 24 -14 24 C-13.67 23.01 -13.34 22.02 -13 21 C-12.67 21 -12.34 21 -12 21 C-12.01740234 19.19402344 -12.01740234 19.19402344 -12.03515625 17.3515625 C-12.04453434 15.77604321 -12.05363452 14.20052225 -12.0625 12.625 C-12.07087891 11.8309375 -12.07925781 11.036875 -12.08789062 10.21875 C-12.11328125 4.2265625 -12.11328125 4.2265625 -11 2 C-10.05125 2.020625 -9.1025 2.04125 -8.125 2.0625 C-5.09333717 2.22551826 -5.09333717 2.22551826 -3 1 C-2.01 1.33 -1.02 1.66 0 2 C0 1.34 0 0.68 0 0 Z " fill="#F2C294" transform="translate(38,60)"/>
<path d="M0 0 C2.97160234 1.7829614 4.57406172 3.30301008 6.375 6.25 C7.24928638 10.09686005 6.64796255 13.11222473 6 17 C6 17.33 6 17.66 6 18 C6.33 18 6.66 18 7 18 C7.89619011 25.02015584 5.06020768 28.48511474 1 34 C-0.07027214 35.59899171 -1.13302899 37.20304424 -2.1875 38.8125 C-4.03989608 41.6140577 -5.96457839 44.32813387 -8 47 C-7.34 47 -6.68 47 -6 47 C-5.505 46.505 -5.01 46.01 -4.5 45.5 C-4.005 45.005 -3.51 44.51 -3 44 C-2.34 44 -1.68 44 -1 44 C-1.13921875 44.99580078 -1.13921875 44.99580078 -1.28125 46.01171875 C-1.5139888 48.85861297 -1.58209166 51.19654386 -1 54 C1.36456436 56.35937891 3.94127906 57.7027746 7 59 C4.64046906 61.35953094 3.22104383 61.49141413 0 62 C5.17533845 61.39113665 9.35757611 60.32121194 14 58 C14 57.34 14 56.68 14 56 C14.66 56 15.32 56 16 56 C17.625 58.5 17.625 58.5 19 61 C10.2560507 65.89429021 0.23156531 70.20371357 -10 69 C-14.66424549 67.39163949 -18.58943647 65.60003928 -22 62 C-23.26500612 59.06356008 -24.18793558 56.08980607 -25 53 C-24.34 53 -23.68 53 -23 53 C-26.28804981 50.08772731 -28.59885603 48.50298788 -33 48 C-33 47.34 -33 46.68 -33 46 C-26.375 43 -26.375 43 -23 43 C-23 42.34 -23 41.68 -23 41 C-22.01 41 -21.02 41 -20 41 C-19.7525 40.2575 -19.505 39.515 -19.25 38.75 C-17.80523485 35.57151667 -16.84789464 34.04464231 -14 32 C-11.63024166 31.53852075 -9.33539083 31.31381126 -6.92578125 31.17578125 C-4.99317253 31.20647366 -4.99317253 31.20647366 -4 30 C-5.0725 30.226875 -6.145 30.45375 -7.25 30.6875 C-11 31 -11 31 -13.4375 29.5625 C-13.953125 29.046875 -14.46875 28.53125 -15 28 C-16.98 28.99 -16.98 28.99 -19 30 C-20.8009722 26.14179079 -21.24600726 23.11943571 -21.1875 18.875 C-21.18105469 17.84117188 -21.17460938 16.80734375 -21.16796875 15.7421875 C-20.84522517 10.47321097 -18.75804555 8.50181517 -15 5 C-10.01027213 0.7230904 -6.65093761 -0.57335669 0 0 Z " fill="#D3855C" transform="translate(83,89)"/>
<path d="M0 0 C0.33 0 0.66 0 1 0 C1.00386719 1.30710937 1.00386719 1.30710937 1.0078125 2.640625 C1.28542878 11.19120643 2.60359708 20.60359708 9 27 C11.06772734 27.19941868 11.06772734 27.19941868 13.4375 27.1875 C14.24058594 27.20167969 15.04367188 27.21585938 15.87109375 27.23046875 C18.21630633 27.20162356 18.21630633 27.20162356 20 25 C20.99 25 21.98 25 23 25 C23.185625 23.7934375 23.185625 23.7934375 23.375 22.5625 C23.58125 21.716875 23.7875 20.87125 24 20 C24.66 19.67 25.32 19.34 26 19 C26.40729228 16.67843403 26.74438677 14.3431213 27 12 C27.66 12 28.32 12 29 12 C29.33 11.34 29.66 10.68 30 10 C30.495 10.99 30.495 10.99 31 12 C31.66 11.34 32.32 10.68 33 10 C34.32 15.28 35.64 20.56 37 26 C39.51083114 24.74458443 39.87125446 23.49936512 41 21 C41.2784375 21.9590625 41.2784375 21.9590625 41.5625 22.9375 C42.92139603 25.36145356 42.92139603 25.36145356 46.3125 25.875 C49.92554519 25.99747611 51.83128841 25.63236658 55 24 C53.21192302 26.4100168 51.82238077 27.82780475 48.8359375 28.453125 C47.26693599 28.60644762 45.69483006 28.73133381 44.12109375 28.82421875 C41.81127837 28.93135396 41.81127837 28.93135396 39 30 C39 31.32 39 32.64 39 34 C37.6875 35.75 37.6875 35.75 36 37 C35.01 37 34.02 37 33 37 C33 37.66 33 38.32 33 39 C26.375 42 26.375 42 23 42 C23 42.66 23 43.32 23 44 C25.97 44.33 28.94 44.66 32 45 C31.01 45.66 30.02 46.32 29 47 C28.42006301 49.19454681 28.42006301 49.19454681 28.3125 51.625 C28.21388672 52.85089844 28.21388672 52.85089844 28.11328125 54.1015625 C28.05720703 55.04128906 28.05720703 55.04128906 28 56 C27.67 56 27.34 56 27 56 C27 52.37 27 48.74 27 45 C20.18402944 44.71989162 16.26662474 45.20239967 10 48 C1.08442331 49.72294887 1.08442331 49.72294887 -3 47 C-13.3201487 57.57185964 -17.27178363 71.18432233 -21.421875 84.99609375 C-22.68442065 89.14949298 -24.19738471 93.05270689 -26 97 C-27.30092141 93.09723578 -26.39534931 91.74930783 -24.9375 87.9375 C-23.38361478 83.83068655 -21.89012629 79.73269473 -20.609375 75.53125 C-17.32624294 64.84341343 -13.50614172 53.7687672 -5 46 C-5.4640625 45.2265625 -5.4640625 45.2265625 -5.9375 44.4375 C-7.28901663 41.33696186 -7.56685404 38.34141171 -8 35 C-8.33 34.34 -8.66 33.68 -9 33 C-7.97533757 31.31426503 -6.95026642 29.62877517 -5.921875 27.9453125 C-4.51629756 24.97930587 -4.8106162 22.21952465 -5 19 C-4.67 18.34 -4.34 17.68 -4 17 C-4.99 16.67 -5.98 16.34 -7 16 C-7.6875 13.6875 -7.6875 13.6875 -8 11 C-6.5625 9.3125 -6.5625 9.3125 -5 8 C-5 7.34 -5 6.68 -5 6 C-5.66 5.34 -6.32 4.68 -7 4 C-4 3 -4 3 -1.8125 3.9375 C-0.9153125 4.4634375 -0.9153125 4.4634375 0 5 C-0.33 4.01 -0.66 3.02 -1 2 C-0.67 1.34 -0.34 0.68 0 0 Z " fill="#423332" transform="translate(27,93)"/>
<path d="M0 0 C0.99 0.66 1.98 1.32 3 2 C2.7834375 3.07378906 2.566875 4.14757812 2.34375 5.25390625 C2.06215579 6.69003672 1.78092516 8.12623851 1.5 9.5625 C1.28537109 10.61920898 1.28537109 10.61920898 1.06640625 11.69726562 C0.19125075 16.21890238 -0.14523405 20.39487028 0 25 C0.26554687 24.15695313 0.53109375 23.31390625 0.8046875 22.4453125 C1.15789063 21.34960938 1.51109375 20.25390625 1.875 19.125 C2.22304688 18.03445312 2.57109375 16.94390625 2.9296875 15.8203125 C4 13 4 13 6 11 C5.7834375 11.95712891 5.7834375 11.95712891 5.5625 12.93359375 C5.376875 13.75988281 5.19125 14.58617187 5 15.4375 C4.814375 16.26121094 4.62875 17.08492187 4.4375 17.93359375 C3.96547853 19.81101689 3.96547853 19.81101689 4 21 C4.61875 20.175 5.2375 19.35 5.875 18.5 C6.57625 17.675 7.2775 16.85 8 16 C8.66 16 9.32 16 10 16 C8.73022577 19.83577631 7.43277805 23.66144114 6.125 27.484375 C5.41650112 29.57286051 4.70817265 31.66140384 4 33.75 C3.64421875 34.78382813 3.2884375 35.81765625 2.921875 36.8828125 C-0.24926405 46.27790356 -2.20217044 55.21956627 -2.625 65.125 C-2.74875 67.72375 -2.8725 70.3225 -3 73 C-8.61 73 -14.22 73 -20 73 C-20.13635148 68.91551559 -20.2347831 64.83568833 -20.3125 60.75 C-20.35439453 59.61046875 -20.39628906 58.4709375 -20.43945312 57.296875 C-20.545191 49.85292895 -19.39790462 44.45195492 -16.24975586 37.7109375 C-14.58809134 34.10649859 -13.61499949 30.45453656 -12.625 26.625 C-9.99508423 17.10315157 -6.2206179 7.78519756 0 0 Z " fill="#E52E1B" transform="translate(20,143)"/>
<path d="M0 0 C9.24 0 18.48 0 28 0 C28 9.12686025 27.84434771 22.87047114 21 30 C20.34 30 19.68 30 19 30 C18.67 30.66 18.34 31.32 18 32 C15.8125 32.625 15.8125 32.625 13 33 C12.030625 33.20625 11.06125 33.4125 10.0625 33.625 C6.27369974 32.85177546 5.87605933 31.93175494 3.75 28.8125 C0.22119351 23.09241852 -1.26788352 18.78144581 -1.1875 12 C-1.18105469 10.80375 -1.17460937 9.6075 -1.16796875 8.375 C-1 5 -1 5 0 0 Z " fill="#F8CA9A" transform="translate(29,88)"/>
<path d="M0 0 C2.97160234 1.7829614 4.57406172 3.30301008 6.375 6.25 C7.78362595 12.44795417 6.19586437 17.67355939 3 23 C0.44339068 26.66447336 -1.83576932 29.25683367 -6 31 C-12.32142857 30.67857143 -12.32142857 30.67857143 -15 28 C-16.98 28.99 -16.98 28.99 -19 30 C-20.8009722 26.14179079 -21.24600726 23.11943571 -21.1875 18.875 C-21.18105469 17.84117188 -21.17460938 16.80734375 -21.16796875 15.7421875 C-20.84522517 10.47321097 -18.75804555 8.50181517 -15 5 C-10.01027213 0.7230904 -6.65093761 -0.57335669 0 0 Z " fill="#F6C898" transform="translate(83,89)"/>
<path d="M0 0 C0.33 0.66 0.66 1.32 1 2 C-2.6678852 3.96189209 -5.87248551 5.39301257 -10 6 C-10 6.66 -10 7.32 -10 8 C-9.195625 8.2475 -8.39125 8.495 -7.5625 8.75 C-5 10 -5 10 -4.3125 11.875 C-4.209375 12.57625 -4.10625 13.2775 -4 14 C-3.36345658 15.3479743 -2.70394612 16.68596724 -2 18 C-5.0625 18.875 -5.0625 18.875 -9 19 C-11.73067036 17.38162973 -13.96831445 15.43925772 -16 13 C-16 12.34 -16 11.68 -16 11 C-16.66 11 -17.32 11 -18 11 C-14.19967102 22.55977844 -14.19967102 22.55977844 -5.359375 30.6171875 C-1.23982568 32.31290896 1.98504515 32.34229949 6.375 32.1875 C7.11105469 32.17396484 7.84710938 32.16042969 8.60546875 32.14648438 C10.40396743 32.11144869 12.20208422 32.05765288 14 32 C13.67 33.65 13.34 35.3 13 37 C8.79405774 37.72795155 6.19895255 38.04973814 2 37 C2 43.93 2 50.86 2 58 C1.34 57.67 0.68 57.34 0 57 C-0.33 57.66 -0.66 58.32 -1 59 C0.98 59 2.96 59 5 59 C4.67 57.02 4.34 55.04 4 53 C4.66 53 5.32 53 6 53 C6.33 52.34 6.66 51.68 7 51 C7.33 52.98 7.66 54.96 8 57 C7.34 57 6.68 57 6 57 C6 57.66 6 58.32 6 59 C7.11375 58.79375 8.2275 58.5875 9.375 58.375 C10.57125 58.25125 11.7675 58.1275 13 58 C13.66 58.66 14.32 59.32 15 60 C11.81445408 60.96541545 9.11247293 61.05239684 5.796875 60.87890625 C4.8171875 60.83056641 3.8375 60.78222656 2.828125 60.73242188 C1.81234375 60.67634766 0.7965625 60.62027344 -0.25 60.5625 C-1.28125 60.51029297 -2.3125 60.45808594 -3.375 60.40429688 C-5.91699039 60.27484366 -8.45856593 60.13988672 -11 60 C-11 59.67 -11 59.34 -11 59 C-8.69 59 -6.38 59 -4 59 C-4.57452746 55.06924356 -4.57452746 55.06924356 -7 52 C-3.535 51.505 -3.535 51.505 0 51 C-0.01160156 50.08476563 -0.02320312 49.16953125 -0.03515625 48.2265625 C-0.04417969 47.03804687 -0.05320312 45.84953125 -0.0625 44.625 C-0.07410156 43.44164062 -0.08570312 42.25828125 -0.09765625 41.0390625 C0 38 0 38 1 36 C0.01 36.0825 -0.98 36.165 -2 36.25 C-7.4563915 36.21693096 -11.84145349 34.05371643 -15.76953125 30.31640625 C-20.39592713 25.08216274 -22.27610318 21.51158328 -22.1875 14.375 C-22.17783203 12.65410156 -22.17783203 12.65410156 -22.16796875 10.8984375 C-22 8 -22 8 -21 6 C-19.02 6 -17.04 6 -15 6 C-15.33 5.34 -15.66 4.68 -16 4 C-15.34773437 3.96261719 -14.69546875 3.92523437 -14.0234375 3.88671875 C-8.68377043 3.48506238 -4.6795908 2.83238391 0 0 Z " fill="#2F1F21" transform="translate(25,25)"/>
<path d="M0 0 C0.66 0 1.32 0 2 0 C1.79503906 0.85980469 1.59007812 1.71960938 1.37890625 2.60546875 C-0.48263682 10.77310032 -1.59630959 18.61994382 -2 27 C-1.67386719 26.19175781 -1.34773438 25.38351563 -1.01171875 24.55078125 C-0.57472656 23.48214844 -0.13773438 22.41351563 0.3125 21.3125 C0.74175781 20.25675781 1.17101562 19.20101562 1.61328125 18.11328125 C2.89032901 15.2462191 4.32404122 12.64909614 6 10 C6.33 10.66 6.66 11.32 7 12 C6.13670876 14.05363138 5.18282787 16.06951329 4.1875 18.0625 C1.63412315 23.41865331 -0.13450837 28.13389007 -1 34 C-0.67 34.66 -0.34 35.32 0 36 C0.60328125 34.96359375 1.2065625 33.9271875 1.828125 32.859375 C2.63509888 31.48939609 3.44240829 30.11961479 4.25 28.75 C4.64574219 28.06808594 5.04148438 27.38617188 5.44921875 26.68359375 C7.62120087 23.01614853 9.67545687 19.75624516 13 17 C13.66 17 14.32 17 15 17 C14.46026765 21.89455912 12.97072209 25.34927929 10.5625 29.625 C9.94503906 30.73101562 9.32757813 31.83703125 8.69140625 32.9765625 C8.13324219 33.97429687 7.57507813 34.97203125 7 36 C6.32297099 37.32810163 5.65091987 38.65890882 5 40 C6.03060547 39.33291016 6.03060547 39.33291016 7.08203125 38.65234375 C7.98308594 38.08644531 8.88414062 37.52054688 9.8125 36.9375 C10.70582031 36.36902344 11.59914062 35.80054688 12.51953125 35.21484375 C15 34 15 34 18 35 C15.31499521 38.679451 13.18372479 41.14535911 9 43 C5.38753474 43.36098629 1.81321167 43.28246491 -1.8125 43.1875 C-2.79154297 43.17396484 -3.77058594 43.16042969 -4.77929688 43.14648438 C-7.18676625 43.11125312 -9.59309564 43.06199265 -12 43 C-11.88590407 41.54077307 -11.75834456 40.08259402 -11.625 38.625 C-11.55539063 37.81289062 -11.48578125 37.00078125 -11.4140625 36.1640625 C-11 34 -11 34 -9 32 C-8.7960915 30.04830439 -8.6861457 28.08636576 -8.625 26.125 C-8.01844209 16.50520436 -5.16285802 8.1130626 0 0 Z " fill="#AB1C11" transform="translate(128,173)"/>
<path d="M0 0 C2 3 2 3 2 5 C4.51083114 3.74458443 4.87125446 2.49936512 6 0 C6.185625 0.639375 6.37125 1.27875 6.5625 1.9375 C7.92139603 4.36145356 7.92139603 4.36145356 11.3125 4.875 C14.92554519 4.99747611 16.83128841 4.63236658 20 3 C18.21192302 5.4100168 16.82238077 6.82780475 13.8359375 7.453125 C12.26693599 7.60644762 10.69483006 7.73133381 9.12109375 7.82421875 C6.81127837 7.93135396 6.81127837 7.93135396 4 9 C4 10.32 4 11.64 4 13 C2.6875 14.75 2.6875 14.75 1 16 C0.01 16 -0.98 16 -2 16 C-2 16.66 -2 17.32 -2 18 C-8.625 21 -8.625 21 -12 21 C-12 21.66 -12 22.32 -12 23 C-9.03 23.33 -6.06 23.66 -3 24 C-3.99 24.66 -4.98 25.32 -6 26 C-6.57993699 28.19454681 -6.57993699 28.19454681 -6.6875 30.625 C-6.75324219 31.44226563 -6.81898437 32.25953125 -6.88671875 33.1015625 C-6.94279297 34.04128906 -6.94279297 34.04128906 -7 35 C-7.33 35 -7.66 35 -8 35 C-8 31.37 -8 27.74 -8 24 C-14.81597056 23.71989162 -18.73337526 24.20239967 -25 27 C-33.91557669 28.72294887 -33.91557669 28.72294887 -38 26 C-48.3201487 36.57185964 -52.27178363 50.18432233 -56.421875 63.99609375 C-57.68442065 68.14949298 -59.19738471 72.05270689 -61 76 C-62.30092141 72.09723578 -61.39534931 70.74930783 -59.9375 66.9375 C-58.38361478 62.83068655 -56.89012629 58.73269473 -55.609375 54.53125 C-52.32624294 43.84341343 -48.50614172 32.7687672 -40 25 C-40.4640625 24.2265625 -40.4640625 24.2265625 -40.9375 23.4375 C-42.28901663 20.33696186 -42.56685404 17.34141171 -43 14 C-43.33 13.34 -43.66 12.68 -44 12 C-42.68 10.35 -41.36 8.7 -40 7 C-40.04125 8.051875 -40.0825 9.10375 -40.125 10.1875 C-39.97213772 14.84979946 -39.31481316 17.68518684 -36 21 C-35.01 21 -34.02 21 -33 21 C-30.99690671 21.31421071 -28.99628664 21.6451046 -27 22 C-27 21.01 -27 20.02 -27 19 C-25.35 19.33 -23.7 19.66 -22 20 C-21.01 18.35 -20.02 16.7 -19 15 C-17.906875 15.20625 -16.81375 15.4125 -15.6875 15.625 C-11.9161599 16.40346525 -11.9161599 16.40346525 -9 14 C-7.68 14 -6.36 14 -5 14 C-5 13.34 -5 12.68 -5 12 C-4.52949219 11.56042969 -4.05898438 11.12085937 -3.57421875 10.66796875 C-1.62048207 8.5978805 -1.3350176 7.08586266 -0.8125 4.3125 C-0.57466797 3.10013672 -0.57466797 3.10013672 -0.33203125 1.86328125 C-0.22246094 1.24839844 -0.11289062 0.63351563 0 0 Z " fill="#332323" transform="translate(62,114)"/>
<path d="M0 0 C0.83660156 0.71285156 1.67320312 1.42570313 2.53515625 2.16015625 C6.04290666 5.14984873 6.04290666 5.14984873 10.1171875 7.20703125 C13.20533177 8.47146827 14.99256634 10.18401784 17.34765625 12.53515625 C18.51554687 13.67404297 18.51554687 13.67404297 19.70703125 14.8359375 C21.73083371 17.39077903 22.2575135 19.01964538 22.59765625 22.22265625 C13.18763347 26.44589087 13.18763347 26.44589087 8.59765625 28.22265625 C9.25765625 27.23265625 9.91765625 26.24265625 10.59765625 25.22265625 C11.25765625 25.22265625 11.91765625 25.22265625 12.59765625 25.22265625 C11.99953125 24.08828125 11.40140625 22.95390625 10.78515625 21.78515625 C10.44871094 21.14707031 10.11226562 20.50898438 9.765625 19.8515625 C8.60745826 17.89997638 8.60745826 17.89997638 5.59765625 17.22265625 C5.45328125 16.58328125 5.30890625 15.94390625 5.16015625 15.28515625 C4.97453125 14.60453125 4.78890625 13.92390625 4.59765625 13.22265625 C2.79833046 12.15548921 2.79833046 12.15548921 0.59765625 11.22265625 C-0.10359375 10.48015625 -0.80484375 9.73765625 -1.52734375 8.97265625 C-4.82702022 6.96415753 -5.64967068 7.05711447 -9.33984375 7.66015625 C-14.20748879 8.86258047 -16.80988778 10.80544204 -20.40234375 14.22265625 C-23.87559556 15.38040685 -26.76301823 15.29132277 -30.40234375 15.22265625 C-30.40234375 14.23265625 -30.40234375 13.24265625 -30.40234375 12.22265625 C-28.42487772 11.49185359 -26.42161886 10.82843878 -24.40234375 10.22265625 C-23.74234375 10.55265625 -23.08234375 10.88265625 -22.40234375 11.22265625 C-22.07234375 10.23265625 -21.74234375 9.24265625 -21.40234375 8.22265625 C-20.61859375 7.99578125 -19.83484375 7.76890625 -19.02734375 7.53515625 C-15.91520156 5.97908516 -15.74947979 5.25475149 -14.58984375 2.09765625 C-14.17569769 0.81174418 -13.77387931 -0.47847958 -13.40234375 -1.77734375 C-4.48780359 -3.32024493 -4.48780359 -3.32024493 0 0 Z " fill="#BA2819" transform="translate(137.40234375,142.77734375)"/>
<path d="M0 0 C0.33 0 0.66 0 1 0 C0.67 6.6 0.34 13.2 0 20 C0.61875 18.06125 1.2375 16.1225 1.875 14.125 C3.75 8.25 3.75 8.25 6 6 C5.7834375 6.95712891 5.7834375 6.95712891 5.5625 7.93359375 C5.376875 8.75988281 5.19125 9.58617187 5 10.4375 C4.814375 11.26121094 4.62875 12.08492187 4.4375 12.93359375 C3.96547853 14.81101689 3.96547853 14.81101689 4 16 C4.61875 15.175 5.2375 14.35 5.875 13.5 C6.57625 12.675 7.2775 11.85 8 11 C8.66 11 9.32 11 10 11 C8.73022577 14.83577631 7.43277805 18.66144114 6.125 22.484375 C5.41650112 24.57286051 4.70817265 26.66140384 4 28.75 C3.64421875 29.78382813 3.2884375 30.81765625 2.921875 31.8828125 C-0.24926405 41.27790356 -2.20217044 50.21956627 -2.625 60.125 C-2.74875 62.72375 -2.8725 65.3225 -3 68 C-8.61 68 -14.22 68 -20 68 C-20 63.05 -20 58.1 -20 53 C-17.81901042 54.26953125 -15.63802083 55.5390625 -13.45703125 56.80859375 C-10.95068023 58.02391499 -8.74209635 58.57626575 -6 59 C-5.67 57.35 -5.34 55.7 -5 54 C-5.99 53.67 -6.98 53.34 -8 53 C-6.68 53 -5.36 53 -4 53 C-2.96888439 44.59416622 -2.28361266 37.90031278 -6.07421875 30.09765625 C-7.29121131 27.34016678 -7.31271327 24.97077608 -7 22 C-6.67 23.32 -6.34 24.64 -6 26 C-5.34 26 -4.68 26 -4 26 C-3.67 26.99 -3.34 27.98 -3 29 C-2.94465088 28.26362305 -2.88930176 27.52724609 -2.83227539 26.76855469 C-2.57923642 23.42875623 -2.32092667 20.08938571 -2.0625 16.75 C-1.97548828 15.59113281 -1.88847656 14.43226563 -1.79882812 13.23828125 C-1.71181641 12.12324219 -1.62480469 11.00820312 -1.53515625 9.859375 C-1.456604 8.83295898 -1.37805176 7.80654297 -1.29711914 6.74902344 C-1.04329799 4.40060427 -0.64710829 2.26606418 0 0 Z " fill="#AD1D11" transform="translate(20,148)"/>
<path d="M0 0 C5.22289724 0.409639 8.34664603 1.13174285 12 5 C12.8125 7.75 12.8125 7.75 13 10 C13.66 10 14.32 10 15 10 C15 8.35 15 6.7 15 5 C15.66 5.33 16.32 5.66 17 6 C17 6.99 17 7.98 17 9 C18.19625 9.391875 19.3925 9.78375 20.625 10.1875 C24.96623305 11.83763121 27.78131716 13.62430824 31 17 C32.1875 19.875 32.1875 19.875 32 23 C30.58569367 25.56020416 28.89795283 27.78024894 27 30 C25.09375 29.64453125 25.09375 29.64453125 23 29 C22.505 28.236875 22.01 27.47375 21.5 26.6875 C17.58048446 22.47402079 12.43391206 21.52935575 7 20 C6.95101562 19.30132813 6.90203125 18.60265625 6.8515625 17.8828125 C6.77679688 16.97273438 6.70203125 16.06265625 6.625 15.125 C6.52058594 13.76761719 6.52058594 13.76761719 6.4140625 12.3828125 C6.20431868 9.82058097 6.20431868 9.82058097 4 8 C3.31867549 6.33927151 2.65257873 4.672233 2 3 C1.34 2.01 0.68 1.02 0 0 Z " fill="#392D2C" transform="translate(105,7)"/>
<path d="M0 0 C1 1 1 1 1 6 C7.27 6.33 13.54 6.66 20 7 C20 6.34 20 5.68 20 5 C23.63 5 27.26 5 31 5 C31 5.33 31 5.66 31 6 C37.93 6.495 37.93 6.495 45 7 C45 7.33 45 7.66 45 8 C40.75268633 9.04750703 36.80156052 9.0682551 32.4375 9 C25.57411107 8.93028876 18.83062564 9.2755397 12 10 C11.67 10.99 11.34 11.98 11 13 C11 12.01 11 11.02 11 10 C10.34 10 9.68 10 9 10 C9 11.65 9 13.3 9 15 C8.34 15 7.68 15 7 15 C7 16.65 7 18.3 7 20 C5.6696875 19.690625 5.6696875 19.690625 4.3125 19.375 C0.71900316 18.96818904 -0.78354874 19.52217104 -4 21 C-4.99 21 -5.98 21 -7 21 C-8.95021536 14.53991163 -9.22262303 8.7281627 -9 2 C-5.78832601 0.26747651 -3.68142974 -0.2984943 0 0 Z " fill="#A1C39D" transform="translate(20,78)"/>
<path d="M0 0 C2.00720923 0.28674418 4.0085944 0.61866701 6 1 C6.25523438 1.87011719 6.25523438 1.87011719 6.515625 2.7578125 C9.11119968 11.40487728 9.11119968 11.40487728 15.48046875 17.4765625 C17.9599398 18.72853801 20.44986759 19.90013373 23 21 C21.05846006 23.09572105 19.98525854 24.00569556 17.25 25.0625 C13.01073809 24.98097573 11.49769094 23.47807826 8.41796875 20.73828125 C6.85486378 18.82207819 6.40528284 17.41590677 6 15 C5.2575 14.9175 4.515 14.835 3.75 14.75 C0.24942603 13.79529801 -1.06199654 13.10080554 -3 10 C-2.76082164 6.7483132 -2.39686309 2.39686309 0 0 Z " fill="#B71D11" transform="translate(50,138)"/>
<path d="M0 0 C0.33 0.66 0.66 1.32 1 2 C-3.55426184 4.66590937 -6.73946963 5.31563182 -12 5 C-11.67 5.99 -11.34 6.98 -11 8 C-14.3 8.33 -17.6 8.66 -21 9 C-20.01380118 17.74602641 -19.26710281 24.06113587 -12.5625 30.25 C-8.16133444 33.25567404 -3.92059078 34.31990911 1.3125 35.125 C2.38113281 35.29257812 3.44976563 35.46015625 4.55078125 35.6328125 C5.76314453 35.81457031 5.76314453 35.81457031 7 36 C7 36.33 7 36.66 7 37 C5.35 37 3.7 37 2 37 C2 43.93 2 50.86 2 58 C1.34 57.67 0.68 57.34 0 57 C-0.33 57.66 -0.66 58.32 -1 59 C0.98 59 2.96 59 5 59 C4.67 57.02 4.34 55.04 4 53 C4.66 53 5.32 53 6 53 C6.33 52.34 6.66 51.68 7 51 C7.33 52.98 7.66 54.96 8 57 C7.34 57 6.68 57 6 57 C6 57.66 6 58.32 6 59 C7.11375 58.79375 8.2275 58.5875 9.375 58.375 C10.57125 58.25125 11.7675 58.1275 13 58 C13.66 58.66 14.32 59.32 15 60 C11.81445408 60.96541545 9.11247293 61.05239684 5.796875 60.87890625 C4.8171875 60.83056641 3.8375 60.78222656 2.828125 60.73242188 C1.81234375 60.67634766 0.7965625 60.62027344 -0.25 60.5625 C-1.28125 60.51029297 -2.3125 60.45808594 -3.375 60.40429688 C-5.91699039 60.27484366 -8.45856593 60.13988672 -11 60 C-11 59.67 -11 59.34 -11 59 C-8.69 59 -6.38 59 -4 59 C-4.57452746 55.06924356 -4.57452746 55.06924356 -7 52 C-3.535 51.505 -3.535 51.505 0 51 C-0.01160156 50.08476563 -0.02320312 49.16953125 -0.03515625 48.2265625 C-0.04417969 47.03804687 -0.05320312 45.84953125 -0.0625 44.625 C-0.07410156 43.44164062 -0.08570312 42.25828125 -0.09765625 41.0390625 C0 38 0 38 1 36 C0.01 36.0825 -0.98 36.165 -2 36.25 C-7.4563915 36.21693096 -11.84145349 34.05371643 -15.76953125 30.31640625 C-20.39592713 25.08216274 -22.27610318 21.51158328 -22.1875 14.375 C-22.17783203 12.65410156 -22.17783203 12.65410156 -22.16796875 10.8984375 C-22 8 -22 8 -21 6 C-19.02 6 -17.04 6 -15 6 C-15.33 5.34 -15.66 4.68 -16 4 C-15.34773437 3.96261719 -14.69546875 3.92523437 -14.0234375 3.88671875 C-8.68377043 3.48506238 -4.6795908 2.83238391 0 0 Z " fill="#14110F" transform="translate(25,25)"/>
<path d="M0 0 C-0.53973235 4.89455912 -2.02927791 8.34927929 -4.4375 12.625 C-5.05496094 13.73101562 -5.67242187 14.83703125 -6.30859375 15.9765625 C-6.86675781 16.97429687 -7.42492187 17.97203125 -8 19 C-8.67702901 20.32810163 -9.34908013 21.65890882 -10 23 C-9.31292969 22.55527344 -8.62585938 22.11054688 -7.91796875 21.65234375 C-6.56638672 20.80349609 -6.56638672 20.80349609 -5.1875 19.9375 C-4.29417969 19.36902344 -3.40085938 18.80054688 -2.48046875 18.21484375 C0 17 0 17 3 18 C0.33240178 21.65559757 -1.91299425 24.02537925 -6 26 C-9.33203125 26.29296875 -9.33203125 26.29296875 -12.8125 26.1875 C-14.55466797 26.14689453 -14.55466797 26.14689453 -16.33203125 26.10546875 C-17.21246094 26.07066406 -18.09289062 26.03585938 -19 26 C-18.4140625 19.84765625 -18.4140625 19.84765625 -18 18 C-17.34 17.67 -16.68 17.34 -16 17 C-15.67 17.66 -15.34 18.32 -15 19 C-14.09507812 17.44539063 -14.09507812 17.44539063 -13.171875 15.859375 C-12.36490112 14.48939609 -11.55759171 13.11961479 -10.75 11.75 C-10.35425781 11.06808594 -9.95851562 10.38617188 -9.55078125 9.68359375 C-3.81583738 0 -3.81583738 0 0 0 Z " fill="#BD1D10" transform="translate(143,190)"/>
<path d="M0 0 C0.495 0.99 0.495 0.99 1 2 C-0.98 2.66 -2.96 3.32 -5 4 C-5 4.66 -5 5.32 -5 6 C-14.31459987 9.02679454 -23.66225787 11.03794254 -33 7 C-33 6.34 -33 5.68 -33 5 C-27.28811767 2.00806164 -21.78009845 1.26730424 -15.40234375 0.52734375 C-11.98111071 0.09892233 -11.98111071 0.09892233 -8.7734375 -1.10546875 C-5.1694582 -2.26787898 -3.37837802 -1.57133861 0 0 Z " fill="#E32F1C" transform="translate(99,157)"/>
<path d="M0 0 C2.25 2.0625 2.25 2.0625 4 4 C2.35 4.99 0.7 5.98 -1 7 C-0.67 7.66 -0.34 8.32 0 9 C-0.6290625 9.00257813 -1.258125 9.00515625 -1.90625 9.0078125 C-8.11887544 9.28850341 -11.60604864 10.54095247 -16.30859375 14.625 C-19.89790712 17.54287137 -23.58438459 17.0833135 -28 17 C-28 16.01 -28 15.02 -28 14 C-26.02253397 13.26919734 -24.01927511 12.60578253 -22 12 C-21.34 12.33 -20.68 12.66 -20 13 C-19.67 12.01 -19.34 11.02 -19 10 C-18.21625 9.773125 -17.4325 9.54625 -16.625 9.3125 C-13.51285781 7.75642891 -13.34713604 7.03209524 -12.1875 3.875 C-11.77335394 2.58908793 -11.37153556 1.29886417 -11 0 C-3.06403415 -1.37353255 -3.06403415 -1.37353255 0 0 Z " fill="#B91E12" transform="translate(135,141)"/>
<path d="M0 0 C0.66 0 1.32 0 2 0 C1.84579619 7.09337532 -1.62926826 11.59766697 -6 17 C-6.75152344 17.63035156 -7.50304687 18.26070312 -8.27734375 18.91015625 C-10.32674109 20.93654372 -10.32674109 20.93654372 -9.953125 24.015625 C-9.72109375 25.08296875 -9.4890625 26.1503125 -9.25 27.25 C-9.02828125 28.32765625 -8.8065625 29.4053125 -8.578125 30.515625 C-8.38734375 31.33546875 -8.1965625 32.1553125 -8 33 C-13.640625 34.1171875 -13.640625 34.1171875 -16.875 33.0625 C-19 31 -19 31 -19.30859375 29.015625 C-19.31215375 27.00778315 -19.16402736 25.00113383 -19 23 C-18.34 23.99 -17.68 24.98 -17 26 C-16.0406581 24.72992786 -15.08256706 23.45891081 -14.125 22.1875 C-13.59132813 21.47980469 -13.05765625 20.77210938 -12.5078125 20.04296875 C-9.68407035 16.42105613 -9.68407035 16.42105613 -9 12 C-7.60002223 9.84818232 -6.1835222 7.84192538 -4.625 5.8125 C-4.2125 5.25369141 -3.8 4.69488281 -3.375 4.11914062 C-2.30360789 2.70386621 -1.15657675 1.34655596 0 0 Z " fill="#3E2623" transform="translate(101,110)"/>
<path d="M0 0 C1.98 0.99 1.98 0.99 4 2 C3.67 2.66 3.34 3.32 3 4 C3 8.09939665 4.52298101 9.78656995 7 13 C12.91979771 17.29185334 18.04150364 17.23033455 25.140625 16.66015625 C30.38830307 15.76252711 35.1691326 14.00744246 40.08666992 11.99584961 C44.47186287 10.26322935 47.29386752 9.66741405 52 11 C52.66 11.33 53.32 11.66 54 12 C55.32 12 56.64 12 58 12 C58 12.66 58 13.32 58 14 C55.36 14.33 52.72 14.66 50 15 C50 15.99 50 16.98 50 18 C48.40084119 18.69906942 46.79544955 19.38389468 45.1875 20.0625 C43.84751953 20.63677734 43.84751953 20.63677734 42.48046875 21.22265625 C40 22 40 22 37 21 C39.475 19.515 39.475 19.515 42 18 C39.13489678 16.56744839 36.97316443 15.76361077 33.796875 16.53515625 C32.59804687 16.95087891 32.59804687 16.95087891 31.375 17.375 C24.19542315 19.78621331 16.54672611 20.53460896 9.5 17.3125 C4.56454165 14.4044706 1.64474745 10.4824915 0 5 C-0.125 2.1875 -0.125 2.1875 0 0 Z " fill="#57130E" transform="translate(57,140)"/>
<path d="M0 0 C0.33 0 0.66 0 1 0 C1.01417969 0.88300781 1.02835938 1.76601562 1.04296875 2.67578125 C1.34667914 10.31779123 2.32308589 15.92636857 6.13671875 22.59765625 C7 25 7 25 6.14453125 27.80859375 C5.76683594 28.53175781 5.38914062 29.25492188 5 30 C2.3513141 26.80331012 0.06007659 23.60513403 -2 20 C-2.99 20.99 -3.98 21.98 -5 23 C-4.67 21.02 -4.34 19.04 -4 17 C-4.99 16.67 -5.98 16.34 -7 16 C-7.6875 13.6875 -7.6875 13.6875 -8 11 C-6.5625 9.3125 -6.5625 9.3125 -5 8 C-5 7.34 -5 6.68 -5 6 C-5.66 5.34 -6.32 4.68 -7 4 C-4 3 -4 3 -1.8125 3.9375 C-1.214375 4.288125 -0.61625 4.63875 0 5 C-0.33 4.01 -0.66 3.02 -1 2 C-0.67 1.34 -0.34 0.68 0 0 Z " fill="#3B2B27" transform="translate(27,93)"/>
<path d="M0 0 C3.63 0 7.26 0 11 0 C11 0.33 11 0.66 11 1 C17.93 1.495 17.93 1.495 25 2 C25 2.33 25 2.66 25 3 C20.75268633 4.04750703 16.80156052 4.0682551 12.4375 4 C5.57411107 3.93028876 -1.16937436 4.2755397 -8 5 C-8.33 5.99 -8.66 6.98 -9 8 C-9 7.01 -9 6.02 -9 5 C-9.66 5 -10.32 5 -11 5 C-11 6.65 -11 8.3 -11 10 C-11.66 10 -12.32 10 -13 10 C-13 11.65 -13 13.3 -13 15 C-14.32 14.34 -15.64 13.68 -17 13 C-16.34 13 -15.68 13 -15 13 C-15.33 10.36 -15.66 7.72 -16 5 C-16.86625 5.309375 -16.86625 5.309375 -17.75 5.625 C-20.51967567 6.08661261 -21.64561267 5.42944945 -24 4 C-24 3.34 -24 2.68 -24 2 C-16.08 2 -8.16 2 0 2 C0 1.34 0 0.68 0 0 Z " fill="#605854" transform="translate(40,83)"/>
<path d="M0 0 C2.30275556 1.8670991 3.67823871 3.35647741 5 6 C5.039992 7.99960012 5.04346799 10.00047242 5 12 C4.67 12 4.34 12 4 12 C4 10.35 4 8.7 4 7 C2.35 7 0.7 7 -1 7 C-1 9.64 -1 12.28 -1 15 C-7.625 17 -7.625 17 -11 17 C-11.33 16.01 -11.66 15.02 -12 14 C-11.67 13.34 -11.34 12.68 -11 12 C-10.34 12 -9.68 12 -9 12 C-9.03480469 11.38511719 -9.06960937 10.77023438 -9.10546875 10.13671875 C-9.13253906 9.32847656 -9.15960938 8.52023438 -9.1875 7.6875 C-9.23970703 6.48673828 -9.23970703 6.48673828 -9.29296875 5.26171875 C-9 3 -9 3 -7.671875 1.234375 C-5.0499064 -0.70147097 -3.15943904 -0.45134843 0 0 Z " fill="#936046" transform="translate(82,93)"/>
<path d="M0 0 C1.051875 -0.02126953 1.051875 -0.02126953 2.125 -0.04296875 C4 0.1875 4 0.1875 6 2.1875 C6.125 4.8125 6.125 4.8125 6 7.1875 C5.34 7.1875 4.68 7.1875 4 7.1875 C4.66 7.8475 5.32 8.5075 6 9.1875 C6.33 6.8775 6.66 4.5675 7 2.1875 C9 3.1875 9 3.1875 9.9375 5.8125 C10.02415545 10.49189433 7.95286655 12.73397442 5 16.1875 C1.21875 15.484375 1.21875 15.484375 -0.75 12.8125 C-3.81280665 9.23922557 -6.55091303 8.59637754 -11 7.1875 C-7.77208445 5.0355563 -6.71599191 4.98663557 -3 5.1875 C-3 4.5275 -3 3.8675 -3 3.1875 C-3.99 2.5275 -4.98 1.8675 -6 1.1875 C-3.77109005 0.07304502 -2.46944894 0.02269714 0 0 Z " fill="#302323" transform="translate(127,20.8125)"/>
<path d="M0 0 C0.66 0 1.32 0 2 0 C3.625 2.5 3.625 2.5 5 5 C-3.81082073 9.93172045 -13.70418639 14.09529932 -24 13 C-24.99 12.34 -25.98 11.68 -27 11 C-26.278125 10.5875 -25.55625 10.175 -24.8125 9.75 C-22.02030138 8.01263197 -19.52987415 6.09618143 -17 4 C-16.01 4.66 -15.02 5.32 -14 6 C-8.81489239 5.61591795 -4.6121867 4.30609335 0 2 C0 1.34 0 0.68 0 0 Z " fill="#F4C595" transform="translate(97,145)"/>
<path d="M0 0 C0.72049569 2.57319891 1.05756922 4.80596905 1.25 7.5 C2.16865921 11.7870763 3.5498083 12.49861102 7 15 C7.8125 17.25 7.8125 17.25 8 19 C10.31 19 12.62 19 15 19 C11.87350101 20.85274014 9.62683775 21.37198336 6 21 C5.01 20.34 4.02 19.68 3 19 C-7.3201487 29.57185964 -11.27178363 43.18432233 -15.421875 56.99609375 C-16.68442065 61.14949298 -18.19738471 65.05270689 -20 69 C-21.30092141 65.09723578 -20.39534931 63.74930783 -18.9375 59.9375 C-17.38361478 55.83068655 -15.89012629 51.73269473 -14.609375 47.53125 C-11.32624294 36.84341343 -7.50614172 25.7687672 1 18 C0.5359375 17.2265625 0.5359375 17.2265625 0.0625 16.4375 C-1.28901663 13.33696186 -1.56685404 10.34141171 -2 7 C-2.33 6.34 -2.66 5.68 -3 5 C-1.5625 2.375 -1.5625 2.375 0 0 Z " fill="#1D100F" transform="translate(21,121)"/>
<path d="M0 0 C-3.47823115 1.15941038 -5.45895578 0.70820884 -9 0 C-9 0.33 -9 0.66 -9 1 C-10.55460937 1.16435547 -10.55460937 1.16435547 -12.140625 1.33203125 C-13.51049264 1.49153639 -14.88028037 1.65172884 -16.25 1.8125 C-16.93191406 1.88275391 -17.61382812 1.95300781 -18.31640625 2.02539062 C-22.35854844 2.51594186 -25.00546098 3.18297231 -28 6 C-28 5.01 -28 4.02 -28 3 C-29.24652344 3.15339844 -30.49304688 3.30679687 -31.77734375 3.46484375 C-37.36346727 4.08552414 -42.94866968 4.33586621 -48.5625 4.5625 C-50.07553711 4.62727539 -50.07553711 4.62727539 -51.61914062 4.69335938 C-54.07932575 4.79829618 -56.53959175 4.90045701 -59 5 C-58.67 4.34 -58.34 3.68 -58 3 C-55.71231068 2.84138687 -53.41801948 2.7772438 -51.125 2.75 C-44.38178626 2.54287057 -38.71199024 1.13189614 -32.375 -1.125 C-20.8960902 -5.11670876 -11.39453548 -4.51852269 0 0 Z " fill="#352828" transform="translate(92,8)"/>
<path d="M0 0 C3.02704805 4.54057207 4.33304426 6.90625117 3.75 12.4375 C3.61851563 13.82775391 3.61851563 13.82775391 3.484375 15.24609375 C2.99029865 18.05515686 2.07201892 20.36788849 1 23 C0.83242243 26.20870233 0.83242243 26.20870233 1 29 C-1.31 28.34 -3.62 27.68 -6 27 C-5.67 25.02 -5.34 23.04 -5 21 C-5.99 20.67 -6.98 20.34 -8 20 C-7.34 19.67 -6.68 19.34 -6 19 C-5.34 19.33 -4.68 19.66 -4 20 C-3.87882813 19.31035156 -3.75765625 18.62070313 -3.6328125 17.91015625 C-2.56140094 11.90200987 -1.36517177 5.94824843 0 0 Z " fill="#B61E12" transform="translate(14,179)"/>
<path d="M0 0 C5 1.66666667 10 3.33333333 15 5 C15.33 7.31 15.66 9.62 16 12 C10.72 12 5.44 12 0 12 C0 8.04 0 4.08 0 0 Z " fill="#D48A60" transform="translate(0,204)"/>
<path d="M0 0 C0.66 0.99 1.32 1.98 2 3 C2.66 2.67 3.32 2.34 4 2 C4 3.65 4 5.3 4 7 C5.65 7.33 7.3 7.66 9 8 C9.8125 9.625 9.8125 9.625 10 12 C8.53181864 14.24609835 6.84147142 16.02378677 5 18 C3.68 17.67 2.36 17.34 1 17 C1.33 16.01 1.66 15.02 2 14 C1.01 14.66 0.02 15.32 -1 16 C-1.99 15.67 -2.98 15.34 -4 15 C-3.525625 14.01 -3.05125 13.02 -2.5625 12 C-0.83186252 8.00810505 -0.37884686 4.31885418 0 0 Z " fill="#473637" transform="translate(118,45)"/>
<path d="M0 0 C0.98226562 0.20882813 0.98226562 0.20882813 1.984375 0.421875 C5.12957565 1.09675611 8.26085113 1.81879902 11.375 2.625 C11.375 3.285 11.375 3.945 11.375 4.625 C7.39889214 7.33986934 3.23598023 6.84940753 -1.375 6.75 C-2.16777344 6.74097656 -2.96054688 6.73195313 -3.77734375 6.72265625 C-5.72669281 6.69917012 -7.67588575 6.66330137 -9.625 6.625 C-8.635 5.635 -7.645 4.645 -6.625 3.625 C-8.935 2.635 -11.245 1.645 -13.625 0.625 C-13.625 0.295 -13.625 -0.035 -13.625 -0.375 C-8.67114232 -1.52527655 -4.9455621 -1.08029312 0 0 Z " fill="#362727" transform="translate(92.625,25.375)"/>
<path d="M0 0 C0.495 0.99 0.495 0.99 1 2 C-0.98 2.66 -2.96 3.32 -5 4 C-5 4.66 -5 5.32 -5 6 C-14.31459987 9.02679454 -23.66225787 11.03794254 -33 7 C-29.74127399 5.913758 -29.13711298 6.14389066 -26 7 C-21.24799701 7.28903059 -16.63039762 7.19494132 -12 6 C-12.185625 5.38125 -12.37125 4.7625 -12.5625 4.125 C-13 2 -13 2 -12 0 C-7.32995643 -2.17211329 -4.67004357 -2.17211329 0 0 Z " fill="#B72719" transform="translate(99,157)"/>
<path d="M0 0 C-5.75221738 3.96263864 -9.53628048 5.1808833 -16.4375 5.1875 C-17.75621094 5.20167969 -19.07492188 5.21585938 -20.43359375 5.23046875 C-23.6550867 5.02228903 -25.33920999 4.72168766 -28 3 C-28 2.34 -28 1.68 -28 1 C-27.12263184 0.96241577 -27.12263184 0.96241577 -26.22753906 0.92407227 C-23.56815529 0.80777038 -20.90909597 0.68519933 -18.25 0.5625 C-16.86941406 0.50352539 -16.86941406 0.50352539 -15.4609375 0.44335938 C-14.57148437 0.40146484 -13.68203125 0.35957031 -12.765625 0.31640625 C-11.94868164 0.27974854 -11.13173828 0.24309082 -10.29003906 0.20532227 C-8.00200493 0.06108272 -8.00200493 0.06108272 -5.84277344 -0.54711914 C-3.59472716 -1.09960004 -2.17704819 -0.69976549 0 0 Z " fill="#382B2B" transform="translate(63,11)"/>
<path d="M0 0 C1.07880948 3.23642843 0.96096756 3.92819587 0.0390625 7.0546875 C-0.29738281 8.22451172 -0.29738281 8.22451172 -0.640625 9.41796875 C-0.88296875 10.22878906 -1.1253125 11.03960937 -1.375 11.875 C-3.64162004 19.63381476 -5.14919096 26.72925925 -5.5625 34.8125 C-5.60568359 35.60076172 -5.64886719 36.38902344 -5.69335938 37.20117188 C-5.79878321 39.13394215 -5.89983094 41.06695026 -6 43 C-7.4606285 40.35261084 -8 39.10551666 -8 36 C-8.99 35.9175 -9.98 35.835 -11 35.75 C-15.47456948 35.13691993 -19.09570685 33.18031955 -23 31 C-22.505 29.515 -22.505 29.515 -22 28 C-21.48050781 28.34933594 -20.96101563 28.69867188 -20.42578125 29.05859375 C-15.12275686 32.54055504 -15.12275686 32.54055504 -9 34 C-8.67 32.35 -8.34 30.7 -8 29 C-8.99 28.67 -9.98 28.34 -11 28 C-9.68 28 -8.36 28 -7 28 C-6.938125 26.865625 -6.87625 25.73125 -6.8125 24.5625 C-5.95442981 16.5709209 -3.59801989 7.19603979 0 0 Z " fill="#230A09" transform="translate(23,173)"/>
<path d="M0 0 C0.33 0 0.66 0 1 0 C0.9278125 0.67160156 0.855625 1.34320313 0.78125 2.03515625 C-0.02887079 10.7552064 -0.05349082 19.37487193 0.125 28.12719727 C0.13660156 29.08682373 0.14820313 30.0464502 0.16015625 31.03515625 C0.17699463 31.8950415 0.19383301 32.75492676 0.21118164 33.64086914 C-0.01766257 36.19731032 -0.71166557 37.80109431 -2 40 C-5.09212176 33.91643021 -6.56699236 28.81987029 -7 22 C-6.67 23.32 -6.34 24.64 -6 26 C-5.34 26 -4.68 26 -4 26 C-3.67 26.99 -3.34 27.98 -3 29 C-2.94465088 28.26362305 -2.88930176 27.52724609 -2.83227539 26.76855469 C-2.57923642 23.42875623 -2.32092667 20.08938571 -2.0625 16.75 C-1.93198242 15.01169922 -1.93198242 15.01169922 -1.79882812 13.23828125 C-1.71181641 12.12324219 -1.62480469 11.00820312 -1.53515625 9.859375 C-1.456604 8.83295898 -1.37805176 7.80654297 -1.29711914 6.74902344 C-1.04329799 4.40060427 -0.64710829 2.26606418 0 0 Z " fill="#811D16" transform="translate(20,148)"/>
<path d="M0 0 C0.66 0 1.32 0 2 0 C1.33333333 2 0.66666667 4 0 6 C-0.22945312 6.75796875 -0.45890625 7.5159375 -0.6953125 8.296875 C-0.94023438 9.08578125 -1.18515625 9.8746875 -1.4375 10.6875 C-1.66308594 11.43386719 -1.88867188 12.18023437 -2.12109375 12.94921875 C-3.07996168 15.18657724 -4.18382155 16.40641724 -6 18 C-6.33 17.67 -6.66 17.34 -7 17 C-7.66 20.3 -8.32 23.6 -9 27 C-9.33 27 -9.66 27 -10 27 C-10.2165625 25.39125 -10.2165625 25.39125 -10.4375 23.75 C-10.82267669 20.2412971 -10.82267669 20.2412971 -11.765625 18.03515625 C-12 16 -12 16 -10.48828125 13.88671875 C-9.77027344 13.16097656 -9.05226563 12.43523437 -8.3125 11.6875 C-4.8051137 7.97741011 -2.31549543 4.53451188 0 0 Z " fill="#271719" transform="translate(102,115)"/>
<path d="M0 0 C0.66 0.33 1.32 0.66 2 1 C2 1.99 2 2.98 2 4 C3.2375 4.433125 4.475 4.86625 5.75 5.3125 C12.27777778 7.84722222 12.27777778 7.84722222 14 10 C14.32391856 13.02863849 14.22890801 15.96696889 14 19 C12.35 17.35 10.7 15.7 9 14 C9.99 14.33 10.98 14.66 12 15 C11.67 13.35 11.34 11.7 11 10 C8.36 10 5.72 10 3 10 C3.66 10.66 4.32 11.32 5 12 C2.69 12 0.38 12 -2 12 C-1.34 11.01 -0.68 10.02 0 9 C0.66 9 1.32 9 2 9 C2 8.01 2 7.02 2 6 C-0.31 7.32 -2.62 8.64 -5 10 C-4.34 7.36 -3.68 4.72 -3 2 C-2.67 2.99 -2.34 3.98 -2 5 C-1.34 5 -0.68 5 0 5 C0 3.35 0 1.7 0 0 Z " fill="#191815" transform="translate(120,12)"/>
<path d="M0 0 C1.32 0 2.64 0 4 0 C4.33 4.95 4.66 9.9 5 15 C-1 13 -1 13 -3 10 C-2.79296875 7.7734375 -2.79296875 7.7734375 -2.1875 5.375 C-1.99542969 4.57835937 -1.80335937 3.78171875 -1.60546875 2.9609375 C-1 1 -1 1 0 0 Z " fill="#BA1F12" transform="translate(50,138)"/>
<path d="M0 0 C1 1 1 1 1.0625 3.5625 C1.041875 4.366875 1.02125 5.17125 1 6 C-1.31 6 -3.62 6 -6 6 C-5.95875 7.2375 -5.9175 8.475 -5.875 9.75 C-5.86341709 13.01637962 -6.1431298 15.2146947 -8 18 C-8.85298376 14.32612505 -9.10789471 10.9552607 -9.0625 7.1875 C-9.05347656 6.21167969 -9.04445313 5.23585938 -9.03515625 4.23046875 C-9.02355469 3.49441406 -9.01195312 2.75835937 -9 2 C-5.78832601 0.26747651 -3.68142974 -0.2984943 0 0 Z " fill="#34342E" transform="translate(20,78)"/>
<path d="M0 0 C-0.66 2.64 -1.32 5.28 -2 8 C-0.02 8 1.96 8 4 8 C3.67 6.02 3.34 4.04 3 2 C3.66 2 4.32 2 5 2 C5.33 1.34 5.66 0.68 6 0 C6.33 1.98 6.66 3.96 7 6 C6.34 6 5.68 6 5 6 C5 6.66 5 7.32 5 8 C6.11375 7.79375 7.2275 7.5875 8.375 7.375 C10.169375 7.189375 10.169375 7.189375 12 7 C12.66 7.66 13.32 8.32 14 9 C10.81445408 9.96541545 8.11247293 10.05239684 4.796875 9.87890625 C3.8171875 9.83056641 2.8375 9.78222656 1.828125 9.73242188 C0.30445313 9.64831055 0.30445313 9.64831055 -1.25 9.5625 C-2.28125 9.51029297 -3.3125 9.45808594 -4.375 9.40429688 C-6.91699039 9.27484366 -9.45856593 9.13988672 -12 9 C-12 8.67 -12 8.34 -12 8 C-9.69 8 -7.38 8 -5 8 C-5.57452746 4.06924356 -5.57452746 4.06924356 -8 1 C-5.29120665 -0.35439668 -2.99066732 -0.06501451 0 0 Z " fill="#201A15" transform="translate(26,76)"/>
<path d="M0 0 C0.66 0 1.32 0 2 0 C2.33773438 0.63808594 2.67546875 1.27617187 3.0234375 1.93359375 C3.46945313 2.75988281 3.91546875 3.58617187 4.375 4.4375 C4.81585937 5.26121094 5.25671875 6.08492187 5.7109375 6.93359375 C6.83418559 9.13466578 6.83418559 9.13466578 9 10 C8.67 11.98 8.34 13.96 8 16 C2.25 13.25 2.25 13.25 0 11 C-0.1953125 8.3984375 -0.1953125 8.3984375 -0.125 5.375 C-0.10695312 4.37210938 -0.08890625 3.36921875 -0.0703125 2.3359375 C-0.04710937 1.56507813 -0.02390625 0.79421875 0 0 Z " fill="#D42D1C" transform="translate(0,190)"/>
<path d="M0 0 C0.66 0 1.32 0 2 0 C1.84687349 7.04381936 -1.5795776 11.67099193 -6 17 C-6.66 17.33 -7.32 17.66 -8 18 C-7.67 16.68 -7.34 15.36 -7 14 C-7.99 13.67 -8.98 13.34 -10 13 C-8.38247153 10.82737873 -6.75661363 8.66200042 -5.125 6.5 C-4.66480469 5.87996094 -4.20460938 5.25992188 -3.73046875 4.62109375 C-2.53437826 3.04364108 -1.27143274 1.51738202 0 0 Z " fill="#3D2E2E" transform="translate(101,110)"/>
<path d="M0 0 C2.64 0.33 5.28 0.66 8 1 C8 1.33 8 1.66 8 2 C5.69 2 3.38 2 1 2 C0.896875 2.928125 0.79375 3.85625 0.6875 4.8125 C-0.04596319 8.21310205 -0.41202449 8.88522092 -3 11 C-6.90815417 12.91016524 -10.49354959 14.44508762 -14.75 13.1875 C-15.4925 12.795625 -16.235 12.40375 -17 12 C-19.70886941 11.83201738 -19.70886941 11.83201738 -22 12 C-21.34 10.35 -20.68 8.7 -20 7 C-18.989375 7.680625 -17.97875 8.36125 -16.9375 9.0625 C-13.98176721 10.73521693 -12.81780742 11.00607309 -9.25 11.125 C-5.74437873 10.29952327 -5.74437873 10.29952327 -4.1875 7 C-3.795625 6.01 -3.40375 5.02 -3 4 C-2.34 3.67 -1.68 3.34 -1 3 C-0.67 2.01 -0.34 1.02 0 0 Z " fill="#250C0D" transform="translate(123,139)"/>
<path d="M0 0 C2.64 0.33 5.28 0.66 8 1 C8 2.98 8 4.96 8 7 C1.375 9 1.375 9 -2 9 C-2.33 8.01 -2.66 7.02 -3 6 C-2.67 5.34 -2.34 4.68 -2 4 C-1.34 4 -0.68 4 0 4 C0 2.68 0 1.36 0 0 Z " fill="#BD7853" transform="translate(73,101)"/>
<path d="M0 0 C3.38939556 2.13679285 4.72582557 3.1774767 6 7 C5.01 7.99 4.02 8.98 3 10 C2.67 8.68 2.34 7.36 2 6 C1.38511719 5.93941406 0.77023438 5.87882812 0.13671875 5.81640625 C-1.07564453 5.69072266 -1.07564453 5.69072266 -2.3125 5.5625 C-3.11300781 5.48128906 -3.91351563 5.40007812 -4.73828125 5.31640625 C-7 5 -7 5 -10 4 C-9.67 3.01 -9.34 2.02 -9 1 C-5.89951072 -0.55024464 -3.42105782 -0.28992015 0 0 Z " fill="#F5CA9A" transform="translate(83,89)"/>
<path d="M0 0 C3.63 0 7.26 0 11 0 C11 0.33 11 0.66 11 1 C17.93 1.495 17.93 1.495 25 2 C25 2.33 25 2.66 25 3 C21.3535194 3.8410478 18.00049093 4.11764968 14.26171875 4.09765625 C13.19501953 4.09443359 12.12832031 4.09121094 11.02929688 4.08789062 C9.37510742 4.07532227 9.37510742 4.07532227 7.6875 4.0625 C6.56537109 4.05798828 5.44324219 4.05347656 4.28710938 4.04882812 C1.5246849 4.03707313 -1.23762998 4.02064077 -4 4 C-3.67 3.34 -3.34 2.68 -3 2 C-2.01 2 -1.02 2 0 2 C0 1.34 0 0.68 0 0 Z " fill="#87807B" transform="translate(40,83)"/>
<path d="M0 0 C-0.99 0.33 -1.98 0.66 -3 1 C-2.505 1.99 -2.505 1.99 -2 3 C-13.09371833 6.72131058 -24.40967568 6.71998816 -36 7 C-35.67 6.34 -35.34 5.68 -35 5 C-32.60711853 4.81429291 -30.27108265 4.7268983 -27.875 4.6875 C-20.31554259 4.428896 -14.13174292 2.68850959 -7.109375 -0.0390625 C-4.08627051 -0.97333851 -2.86914187 -1.17890483 0 0 Z " fill="#131111" transform="translate(69,6)"/>
<path d="M0 0 C0.66 0 1.32 0 2 0 C3.625 2.5 3.625 2.5 5 5 C-0.1581464 8.62167726 -3.05114653 9.39880692 -9.27734375 8.359375 C-9.84582031 8.24078125 -10.41429688 8.1221875 -11 8 C-9.70676893 5.41353786 -8.74300003 5.36331466 -6.0625 4.4375 C-3.96206733 3.70177676 -1.99197374 2.99598687 0 2 C0 1.34 0 0.68 0 0 Z " fill="#D1835B" transform="translate(97,145)"/>
<path d="M0 0 C2.25 2.0625 2.25 2.0625 4 4 C1.25 5.625 1.25 5.625 -2 7 C-4.0625 6.375 -4.0625 6.375 -6 5 C-6.9075 4.505 -7.815 4.01 -8.75 3.5 C-9.4925 3.005 -10.235 2.51 -11 2 C-11 1.34 -11 0.68 -11 0 C-3.06403415 -1.37353255 -3.06403415 -1.37353255 0 0 Z " fill="#991E15" transform="translate(135,141)"/>
<path d="M0 0 C6.12352138 0.36741128 8.78651436 1.78651436 13 6 C13 6.66 13 7.32 13 8 C13.99 7.67 14.98 7.34 16 7 C15.67 9.31 15.34 11.62 15 14 C14.57976562 13.56816406 14.15953125 13.13632812 13.7265625 12.69140625 C11.44034142 10.45173718 8.98594073 8.44403947 6.5234375 6.40234375 C5 5 5 5 4 3 C1.47266765 2.34444881 1.47266765 2.34444881 -1 2 C-0.67 1.34 -0.34 0.68 0 0 Z " fill="#251617" transform="translate(115,28)"/>
<path d="M0 0 C6.76923077 5.29230769 6.76923077 5.29230769 7.9375 8.875 C7.958125 9.57625 7.97875 10.2775 8 11 C5.36 11 2.72 11 0 11 C0 7.37 0 3.74 0 0 Z " fill="#FACA99" transform="translate(0,205)"/>
<path d="M0 0 C3.61055091 0.76242216 6.85834625 2.12473374 10.25 3.5625 C11.32765625 4.01753906 12.4053125 4.47257812 13.515625 4.94140625 C14.33546875 5.29074219 15.1553125 5.64007813 16 6 C14 8 14 8 12.12060547 8.13525391 C11.37697754 8.08288574 10.63334961 8.03051758 9.8671875 7.9765625 C9.06152344 7.925 8.25585938 7.8734375 7.42578125 7.8203125 C6.58402344 7.75585938 5.74226563 7.69140625 4.875 7.625 C4.02550781 7.56828125 3.17601562 7.5115625 2.30078125 7.453125 C0.1998655 7.31149023 -1.90017334 7.15695674 -4 7 C-4 6.67 -4 6.34 -4 6 C-2.02 5.67 -0.04 5.34 2 5 C1.34 3.35 0.68 1.7 0 0 Z " fill="#201616" transform="translate(54,78)"/>
<path d="M0 0 C-1.13622517 2.27245034 -2.28419042 4.48880752 -3.5625 6.6875 C-5.34451703 10.79388706 -5.71444181 14.5689247 -6 19 C-6.33 19 -6.66 19 -7 19 C-7.01417969 18.18015625 -7.02835938 17.3603125 -7.04296875 16.515625 C-7.12366142 9.75112142 -7.12366142 9.75112142 -10.5625 4.25 C-11.366875 3.8375 -12.17125 3.425 -13 3 C-11.39743892 2.49487756 -9.79288208 1.99608373 -8.1875 1.5 C-7.29417969 1.2215625 -6.40085937 0.943125 -5.48046875 0.65625 C-3 0 -3 0 0 0 Z " fill="#271819" transform="translate(52,50)"/>
<path d="M0 0 C3.0625 -0.5 3.0625 -0.5 7 0 C9.71294856 2.38823271 11.86481726 5.09251712 14 8 C11 8 11 8 9.125 7 C6.99556461 5.8137138 6.99556461 5.8137138 4.375 6 C3.59125 6 2.8075 6 2 6 C1.34 5.34 0.68 4.68 0 4 C0 2.68 0 1.36 0 0 Z " fill="#372825" transform="translate(27,69)"/>
<path d="M0 0 C0.40605469 0.87978516 0.40605469 0.87978516 0.8203125 1.77734375 C3.41156727 6.6595423 7.37462541 10.97571662 12 14 C7.54725255 13.49111458 5.41714592 11.78767167 2 9 C1.01 9 0.02 9 -1 9 C-1 10.98 -1 12.96 -1 15 C-1.66 15 -2.32 15 -3 15 C-3.35050464 9.158256 -3.16727335 5.1468192 0 0 Z " fill="#453536" transform="translate(49,54)"/>
<path d="M0 0 C0.33 0.66 0.66 1.32 1 2 C0.67 2.99 0.34 3.98 0 5 C-0.07051114 7.73865287 -0.09357765 10.45027588 -0.0625 13.1875 C-0.05798828 13.93708984 -0.05347656 14.68667969 -0.04882812 15.45898438 C-0.03706354 17.30602383 -0.01912865 19.15302213 0 21 C-2.46261935 18.10823786 -3.40278531 16.15854191 -3.6875 12.375 C-3.75324219 11.59898438 -3.81898437 10.82296875 -3.88671875 10.0234375 C-3.96171452 8.68385785 -4 7.34167731 -4 6 C-4.33 6.66 -4.66 7.32 -5 8 C-5.66 8 -6.32 8 -7 8 C-5.50902342 4.2047869 -3.24299151 2.38957269 0 0 Z " fill="#4C3A3A" transform="translate(63,14)"/>
<path d="M0 0 C2 1 2 1 2.8515625 3.50390625 C3.10679688 4.51324219 3.36203125 5.52257812 3.625 6.5625 C3.88539062 7.57441406 4.14578125 8.58632812 4.4140625 9.62890625 C4.60742188 10.41136719 4.80078125 11.19382813 5 12 C4.01 12.495 4.01 12.495 3 13 C4.3697164 16.99500618 6.25722422 19.80009492 9 23 C4.22396515 21.1237006 1.89559116 17.83382952 -0.3125 13.3125 C-1.26218283 8.73675544 -0.67134819 4.59057004 0 0 Z " fill="#8F1D14" transform="translate(55,139)"/>
<path d="M0 0 C3.68428193 3.28953744 5.8406504 6.60132489 8 11 C7.67 11.99 7.34 12.98 7 14 C5.68 13.67 4.36 13.34 3 13 C1 6.25 1 6.25 1 4 C0.34 4 -0.32 4 -1 4 C-0.67 2.68 -0.34 1.36 0 0 Z " fill="#F1C699" transform="translate(24,112)"/>
<path d="M0 0 C-2.15341406 2.34917898 -4.21667937 3.82443004 -7.0625 5.25 C-7.75472656 5.60578125 -8.44695312 5.9615625 -9.16015625 6.328125 C-9.76730469 6.54984375 -10.37445313 6.7715625 -11 7 C-11.66 6.67 -12.32 6.34 -13 6 C-12.67 5.67 -12.34 5.34 -12 5 C-12.77085938 4.93941406 -13.54171875 4.87882812 -14.3359375 4.81640625 C-15.84027344 4.69072266 -15.84027344 4.69072266 -17.375 4.5625 C-18.37273437 4.48128906 -19.37046875 4.40007813 -20.3984375 4.31640625 C-23 4 -23 4 -25 3 C-24.67 2.34 -24.34 1.68 -24 1 C-23.34 1.33 -22.68 1.66 -22 2 C-20.23229673 2.12240135 -18.45939538 2.17551153 -16.6875 2.1875 C-15.74261719 2.20167969 -14.79773438 2.21585938 -13.82421875 2.23046875 C-8.84358295 1.82402682 -5.18977255 -0.24138477 0 0 Z " fill="#241516" transform="translate(96,54)"/>
<path d="M0 0 C3.72433382 1.2125738 7.37802806 2.50859979 11 4 C10.67 4.99 10.34 5.98 10 7 C8.35333797 6.8864371 6.70763918 6.75882619 5.0625 6.625 C3.68771484 6.52058594 3.68771484 6.52058594 2.28515625 6.4140625 C1.15400391 6.20910156 1.15400391 6.20910156 0 6 C-1.24546405 3.50907189 -0.7767578 2.58919267 0 0 Z " fill="#4B3939" transform="translate(33,34)"/>
<path d="M0 0 C0.680625 0.845625 1.36125 1.69125 2.0625 2.5625 C4.83022973 5.41918212 4.83022973 5.41918212 8.625 4.8125 C9.73875 4.544375 10.8525 4.27625 12 4 C12.99 4 13.98 4 15 4 C11.69670028 7.30329972 8.56608538 7.47424016 4.12109375 7.7890625 C1.81256943 7.93981327 1.81256943 7.93981327 -1 9 C-1.33 9.66 -1.66 10.32 -2 11 C-2.33 9.02 -2.66 7.04 -3 5 C-2.34 4.67 -1.68 4.34 -1 4 C-0.34786708 1.97536745 -0.34786708 1.97536745 0 0 Z " fill="#734A36" transform="translate(67,114)"/>
<path d="M0 0 C1.32 0.33 2.64 0.66 4 1 C5.32 5.62 6.64 10.24 8 15 C7.34 15.66 6.68 16.32 6 17 C5.28764791 15.33784512 4.57587225 13.67544056 3.8671875 12.01171875 C3.30040131 10.69687692 2.72269249 9.38667573 2.1328125 8.08203125 C0.84352435 5.20262105 0 3.19320442 0 0 Z " fill="#463637" transform="translate(102,56)"/>
<path d="M0 0 C2.41674224 -0.02705308 4.8331794 -0.04686438 7.25 -0.0625 C7.93191406 -0.07087891 8.61382812 -0.07925781 9.31640625 -0.08789062 C12.71943941 -0.1044102 15.73326318 0.04845051 19 1 C19.99 1 20.98 1 22 1 C23.6875 2.5 23.6875 2.5 25 4 C24.67 4.99 24.34 5.98 24 7 C21.525 6.505 21.525 6.505 19 6 C19.33 5.34 19.66 4.68 20 4 C13.44723293 1.71415102 6.89598561 1.39405632 0 1 C0 0.67 0 0.34 0 0 Z " fill="#151313" transform="translate(70,4)"/>
<path d="M0 0 C0.51046875 0.2165625 1.0209375 0.433125 1.546875 0.65625 C8.11148247 3.17035499 14.02489733 3.31865951 21 3 C20 5 20 5 18.19921875 5.60546875 C10.47677309 6.99084532 4.89265728 5.65001236 -2 2 C-1.34 1.34 -0.68 0.68 0 0 Z " fill="#483738" transform="translate(16,52)"/>
<path d="M0 0 C3.37503669 1.1858237 5.64722731 2.27573689 8 5 C7.34 5 6.68 5 6 5 C6 5.66 6 6.32 6 7 C8.475 7.99 8.475 7.99 11 9 C9 10 9 10 7.01171875 9.4765625 C5.86123047 9.05503906 5.86123047 9.05503906 4.6875 8.625 C1.46922991 7.48822395 -1.61931629 6.54527157 -5 6 C-5 5.67 -5 5.34 -5 5 C-2.36 4.67 0.28 4.34 3 4 C2.2575 3.2884375 2.2575 3.2884375 1.5 2.5625 C0 1 0 1 0 0 Z " fill="#3E3031" transform="translate(93,12)"/>
<path d="M0 0 C0.33 0 0.66 0 1 0 C1.06058594 0.85722656 1.12117188 1.71445313 1.18359375 2.59765625 C1.61143536 8.43604873 2.059163 14.22057272 3 20 C2.34 19.34 1.68 18.68 1 18 C1 17.01 1 16.02 1 15 C0.34 15 -0.32 15 -1 15 C-2.51708428 4.44191344 -2.51708428 4.44191344 0 0 Z " fill="#BD1E10" transform="translate(15,159)"/>
<path d="M0 0 C2.4375 1.25 2.4375 1.25 3.4375 4.25 C-1.21237264 5.6734304 -5.68757777 6.86765316 -10.5625 7.25 C-11.2225 6.59 -11.8825 5.93 -12.5625 5.25 C-9.0975 4.755 -9.0975 4.755 -5.5625 4.25 C-5.376875 3.2909375 -5.376875 3.2909375 -5.1875 2.3125 C-4.98125 1.631875 -4.775 0.95125 -4.5625 0.25 C-2.5625 -0.75 -2.5625 -0.75 0 0 Z " fill="#3D2823" transform="translate(93.5625,144.75)"/>
<path d="M0 0 C0.66 1.32 1.32 2.64 2 4 C4.0335948 5.26804566 4.0335948 5.26804566 6 6 C5.67 6.99 5.34 7.98 5 9 C4.34 9 3.68 9 3 9 C3.33 10.98 3.66 12.96 4 15 C2.02 15 0.04 15 -2 15 C-1.67 14.01 -1.34 13.02 -1 12 C-0.67 12 -0.34 12 0 12 C0 8.04 0 4.08 0 0 Z " fill="#EDC699" transform="translate(26,69)"/>
<path d="M0 0 C5.73662874 -0.4589303 8.50376662 0.42345072 13 4 C13.99 4.99 14.98 5.98 16 7 C12.04 7 8.08 7 4 7 C4.99 6.01 5.98 5.02 7 4 C4.69 3.01 2.38 2.02 0 1 C0 0.67 0 0.34 0 0 Z " fill="#4A393A" transform="translate(79,25)"/>
<path d="M0 0 C-0.99 0.495 -0.99 0.495 -2 1 C-2.63860769 3.69797102 -3.16825242 6.33366623 -3.625 9.0625 C-3.7590625 9.82111328 -3.893125 10.57972656 -4.03125 11.36132812 C-4.36200122 13.23952258 -4.68200734 15.11960338 -5 17 C-8.015625 13.296875 -8.015625 13.296875 -7.875 10.625 C-6.85906932 7.57720797 -5.51383254 4.83020866 -4 2 C-4.99 1.67 -5.98 1.34 -7 1 C-4.53721199 -0.231394 -2.7204945 -0.07159196 0 0 Z " fill="#150F10" transform="translate(139,103)"/>
<path d="M0 0 C0.66 0.66 1.32 1.32 2 2 C1.68603757 5.95592656 1.25172182 9.24483454 0 13 C-1.32 12.67 -2.64 12.34 -4 12 C-4 9.36 -4 6.72 -4 4 C-3.34 4 -2.68 4 -2 4 C-1.34 2.68 -0.68 1.36 0 0 Z " fill="#E3AC80" transform="translate(88,96)"/>
<path d="M0 0 C0.33 0.99 0.66 1.98 1 3 C0.67 3.66 0.34 4.32 0 5 C-3.3125 5.875 -3.3125 5.875 -7 6 C-9.4375 4.125 -9.4375 4.125 -11 2 C-11 1.67 -11 1.34 -11 1 C-5.555 0.505 -5.555 0.505 0 0 Z " fill="#352121" transform="translate(38,57)"/>
<path d="M0 0 C0.33 0 0.66 0 1 0 C1 1.65 1 3.3 1 5 C1.66 5 2.32 5 3 5 C2.51675181 10.15464734 -0.18610761 13.81550319 -3 18 C-3.33 17.01 -3.66 16.02 -4 15 C-3.0126546 13.32580562 -2.01187895 11.65948148 -1 10 C-1 8.68 -1 7.36 -1 6 C-1.99 6.495 -1.99 6.495 -3 7 C-1.125 1.125 -1.125 1.125 0 0 Z " fill="#1E0F10" transform="translate(90,104)"/>
<path d="M0 0 C0.99 0 1.98 0 3 0 C3.33 2.64 3.66 5.28 4 8 C2.34385343 8.38218767 0.67542976 8.71395102 -1 9 C-1.33 8.67 -1.66 8.34 -2 8 C-1.28 1.28 -1.28 1.28 0 0 Z " fill="#F3C89D" transform="translate(21,88)"/>
<path d="M0 0 C0 0.99 0 1.98 0 3 C1.34810432 6.70358331 3.50374468 8.43135319 6.625 10.75 C7.44226563 11.36359375 8.25953125 11.9771875 9.1015625 12.609375 C9.72804687 13.06828125 10.35453125 13.5271875 11 14 C7.052461 14 5.99276019 12.62787385 3 10.125 C0.37373282 7.94426029 -2.15729904 5.89513397 -5 4 C-5 3.01 -5 2.02 -5 1 C-3.35 0.67 -1.7 0.34 0 0 Z " fill="#16110E" transform="translate(136,135)"/>
<path d="M0 0 C3.33048936 0.08005984 4.56267806 0.30010683 7.5 2.0625 C9.71547855 4.40457733 11.75320015 6.79593353 13.6875 9.375 C12.6975 9.87 12.6975 9.87 11.6875 10.375 C11.6875 12.025 11.6875 13.675 11.6875 15.375 C11.3575 15.375 11.0275 15.375 10.6875 15.375 C10.51734375 14.68792969 10.3471875 14.00085938 10.171875 13.29296875 C9.92953125 12.39191406 9.6871875 11.49085937 9.4375 10.5625 C9.20546875 9.66917969 8.9734375 8.77585937 8.734375 7.85546875 C7.48519451 4.89565677 6.50895821 3.88507623 3.6875 2.375 C1.09868198 2.01465477 1.09868198 2.01465477 -1.5625 2.1875 C-2.90054688 2.22810547 -2.90054688 2.22810547 -4.265625 2.26953125 C-5.27882813 2.32173828 -5.27882813 2.32173828 -6.3125 2.375 C-3.93025072 -0.00724928 -3.2622963 0.05482851 0 0 Z " fill="#120B0D" transform="translate(79.3125,87.625)"/>
<path d="M0 0 C1.76951173 2.30036525 3.33038455 4.55823596 4.8125 7.0625 C7.25107525 10.33715819 9.26402849 11.47164802 13 13 C12.01 13.66 11.02 14.32 10 15 C6.12744985 13.42229438 3.61606974 11.25241103 1 8 C0.30031057 5.26715505 0.14450989 2.84202784 0 0 Z " fill="#443435" transform="translate(57,52)"/>
<path d="M0 0 C1.67542976 0.28604898 3.34385343 0.61781233 5 1 C5.25 3.25 5.25 3.25 5 6 C3 8.3125 3 8.3125 1 10 C0.63883954 8.5225254 0.28624952 7.04295325 -0.0625 5.5625 C-0.25972656 4.73878906 -0.45695312 3.91507813 -0.66015625 3.06640625 C-0.82837891 2.04353516 -0.82837891 2.04353516 -1 1 C-0.67 0.67 -0.34 0.34 0 0 Z " fill="#2C1B1A" transform="translate(40,56)"/>
<path d="M0 0 C1.051875 -0.02126953 1.051875 -0.02126953 2.125 -0.04296875 C4 0.1875 4 0.1875 6 2.1875 C6.125 4.8125 6.125 4.8125 6 7.1875 C2 5.1875 -2 3.1875 -6 1.1875 C-3.77109005 0.07304502 -2.46944894 0.02269714 0 0 Z " fill="#9DC59C" transform="translate(127,20.8125)"/>
<path d="M0 0 C5.77036882 0.58090961 11.28752853 1.42502164 16 5 C13.0300751 6.48496245 10.75188702 5.72483306 7.5 5.25 C6.3346875 5.09015625 5.169375 4.9303125 3.96875 4.765625 C1 4 1 4 -1 1 C-0.67 0.67 -0.34 0.34 0 0 Z " fill="#9BC09A" transform="translate(74,0)"/>
<path d="M0 0 C3.44428265 1.44781793 5.36130962 3.27694609 7.75 6.125 C8.36359375 6.84945313 8.9771875 7.57390625 9.609375 8.3203125 C10.29773438 9.15175781 10.29773438 9.15175781 11 10 C10.01 11.485 10.01 11.485 9 13 C8.46375 12.0925 7.9275 11.185 7.375 10.25 C5.09936542 6.79561944 2.53604841 5.08948315 -1 3 C-0.67 2.01 -0.34 1.02 0 0 Z " fill="#281A1B" transform="translate(98,11)"/>
<path d="M0 0 C-0.99 0 -1.98 0 -3 0 C-3 0.66 -3 1.32 -3 2 C-0.03 2.33 2.94 2.66 6 3 C5.01 3.66 4.02 4.32 3 5 C2.42006301 7.19454681 2.42006301 7.19454681 2.3125 9.625 C2.24675781 10.44226563 2.18101563 11.25953125 2.11328125 12.1015625 C2.07589844 12.72804687 2.03851563 13.35453125 2 14 C1.67 14 1.34 14 1 14 C1 10.37 1 6.74 1 3 C-2.3 2.67 -5.6 2.34 -9 2 C-5.945634 -1.054366 -3.9532319 -1.22686507 0 0 Z " fill="#290E0D" transform="translate(53,135)"/>
<path d="M0 0 C0.33 0 0.66 0 1 0 C1.33292585 4.24480464 1.43885872 6.35542625 -1 9.9375 C-1.66 10.618125 -2.32 11.29875 -3 12 C-3 11.01 -3 10.02 -3 9 C-4.32 9.33 -5.64 9.66 -7 10 C-3.25 4.125 -3.25 4.125 -1 3 C-0.67 2.01 -0.34 1.02 0 0 Z " fill="#9D6249" transform="translate(89,107)"/>
<path d="M0 0 C0.99 0.66 1.98 1.32 3 2 C2.67 2.99 2.34 3.98 2 5 C1.34 5 0.68 5 0 5 C0 6.32 0 7.64 0 9 C-1.98 9.99 -1.98 9.99 -4 11 C-3.56179109 6.44262737 -3.14958831 3.42346555 0 0 Z " fill="#D42E1E" transform="translate(20,143)"/>
<path d="M0 0 C0.99 0.33 1.98 0.66 3 1 C3 2.65 3 4.3 3 6 C0.69 6 -1.62 6 -4 6 C-3.6875 4.125 -3.6875 4.125 -3 2 C-2.01 1.34 -1.02 0.68 0 0 Z " fill="#9CBC97" transform="translate(18,78)"/>
<path d="M0 0 C1.32 0 2.64 0 4 0 C3.67 3.3 3.34 6.6 3 10 C1.68 9.34 0.36 8.68 -1 8 C-0.34 8 0.32 8 1 8 C0.67 5.36 0.34 2.72 0 0 Z " fill="#BC8467" transform="translate(24,88)"/>
<path d="M0 0 C2.68428929 0.0382629 5.32352593 0.14464553 8 0.3125 C9.12535156 0.36567383 9.12535156 0.36567383 10.2734375 0.41992188 C12.18856178 0.53572813 14.09645139 0.7599692 16 1 C16.33 1.66 16.66 2.32 17 3 C12.71 3 8.42 3 4 3 C3.67 3.99 3.34 4.98 3 6 C2.34 5.67 1.68 5.34 1 5 C1.33 4.01 1.66 3.02 2 2 C1.01 1.67 0.02 1.34 -1 1 C-0.67 0.67 -0.34 0.34 0 0 Z " fill="#241616" transform="translate(69,86)"/>
<path d="M0 0 C1.5 1.3125 1.5 1.3125 3 3 C3 3.99 3 4.98 3 6 C2.34 6 1.68 6 1 6 C0.67 6.66 0.34 7.32 0 8 C-1.65 6.68 -3.3 5.36 -5 4 C-3.35 3.34 -1.7 2.68 0 2 C0 1.34 0 0.68 0 0 Z " fill="#241718" transform="translate(96,139)"/>
<path d="M0 0 C0.66 0 1.32 0 2 0 C1.67 1.32 1.34 2.64 1 4 C-5.435 4.495 -5.435 4.495 -12 5 C-11.67 4.01 -11.34 3.02 -11 2 C-10.05125 2.020625 -9.1025 2.04125 -8.125 2.0625 C-5.09333717 2.22551826 -5.09333717 2.22551826 -3 1 C-2.01 1.33 -1.02 1.66 0 2 C0 1.34 0 0.68 0 0 Z " fill="#C68B6A" transform="translate(38,60)"/>
<path d="M0 0 C0.8723412 2.99480917 1.10829766 5.63575911 1.0625 8.75 C1.05347656 9.54921875 1.04445313 10.3484375 1.03515625 11.171875 C1.01775391 12.07679688 1.01775391 12.07679688 1 13 C0.01 12.67 -0.98 12.34 -2 12 C-1.979375 11.21625 -1.95875 10.4325 -1.9375 9.625 C-1.81315937 7.01885039 -1.81315937 7.01885039 -3 5 C-1.5625 2.375 -1.5625 2.375 0 0 Z " fill="#1F1D19" transform="translate(21,121)"/>
<path d="M0 0 C-1.625 5.75 -1.625 5.75 -5 8 C-5.185625 6.824375 -5.185625 6.824375 -5.375 5.625 C-5.79117993 2.85942178 -5.79117993 2.85942178 -8 1 C-5.29120665 -0.35439668 -2.99066732 -0.06501451 0 0 Z " fill="#4C473A" transform="translate(26,76)"/>
<path d="M0 0 C2.40072955 2.88087546 4.47291037 5.56404834 6 9 C4.68 8.34 3.36 7.68 2 7 C1.67 8.65 1.34 10.3 1 12 C0.67 12 0.34 12 0 12 C-0.19573608 10.56359829 -0.38127816 9.12580496 -0.5625 7.6875 C-0.66691406 6.88699219 -0.77132812 6.08648437 -0.87890625 5.26171875 C-1 3 -1 3 0 0 Z " fill="#1B1815" transform="translate(142,50)"/>
<path d="M0 0 C2 1 2 1 2.9375 3.625 C3.02415545 8.30439433 0.95286655 10.54647442 -2 14 C-2.33 13.34 -2.66 12.68 -3 12 C-2.71125 11.46375 -2.4225 10.9275 -2.125 10.375 C-0.51064418 6.96691549 -0.37461871 3.7461871 0 0 Z " fill="#362F2C" transform="translate(134,23)"/>
<path d="M0 0 C0.66 0.33 1.32 0.66 2 1 C2 1.99 2 2.98 2 4 C3.32 4.33 4.64 4.66 6 5 C5.67 5.66 5.34 6.32 5 7 C2.66842508 7.34541851 0.33491639 7.67794257 -2 8 C-2.99 8.66 -3.98 9.32 -5 10 C-4.34 7.36 -3.68 4.72 -3 2 C-2.67 2.99 -2.34 3.98 -2 5 C-1.34 5 -0.68 5 0 5 C0 3.35 0 1.7 0 0 Z " fill="#1F211B" transform="translate(120,12)"/>
<path d="M0 0 C0.66 0 1.32 0 2 0 C2 2.97 2 5.94 2 9 C1.01 9 0.02 9 -1 9 C-2.0326802 6.21176345 -2.04509293 5.1322726 -1.0625 2.25 C-0.711875 1.5075 -0.36125 0.765 0 0 Z " fill="#9B614E" transform="translate(80,133)"/>
<path d="M0 0 C1.11511089 3.34533267 0.93410412 3.88053566 -0.3125 7 C-0.70888672 8.0209375 -0.70888672 8.0209375 -1.11328125 9.0625 C-2 11 -2 11 -4 14 C-4.66 14 -5.32 14 -6 14 C-5.67 12.02 -5.34 10.04 -5 8 C-4.34 8 -3.68 8 -3 8 C-2.690625 7.05125 -2.38125 6.1025 -2.0625 5.125 C-1 2 -1 2 0 0 Z " fill="#3B2B2D" transform="translate(104,118)"/>
<path d="M0 0 C0.33 0.66 0.66 1.32 1 2 C-3.46153846 8.92307692 -3.46153846 8.92307692 -6 11 C-6.66 11 -7.32 11 -8 11 C-6.63629701 8.00779732 -5.05091917 5.70973471 -2.875 3.25 C-2.33617187 2.63640625 -1.79734375 2.0228125 -1.2421875 1.390625 C-0.62730469 0.70226562 -0.62730469 0.70226562 0 0 Z " fill="#362727" transform="translate(146,71)"/>
<path d="M0 0 C1.051875 0.639375 2.10375 1.27875 3.1875 1.9375 C6.10828412 3.61754452 8.6171743 4.58996052 12 5 C10.3125 6.125 10.3125 6.125 8 7 C6.31050386 6.39351421 4.64363134 5.72159424 3 5 C0.29113059 4.83201738 0.29113059 4.83201738 -2 5 C-1.34 3.35 -0.68 1.7 0 0 Z " fill="#170A0B" transform="translate(103,146)"/>
<path d="M0 0 C0.33 0 0.66 0 1 0 C1.33 1.98 1.66 3.96 2 6 C3.65 6.33 5.3 6.66 7 7 C7 7.33 7 7.66 7 8 C2.545 8.495 2.545 8.495 -2 9 C-2.33 8.01 -2.66 7.02 -3 6 C-2.67 5.34 -2.34 4.68 -2 4 C-1.34 4 -0.68 4 0 4 C0 2.68 0 1.36 0 0 Z " fill="#5B392A" transform="translate(73,101)"/>
<path d="M0 0 C0 3.72207387 -1.17964568 5.46395589 -3 8.6875 C-3.8353125 10.17830078 -3.8353125 10.17830078 -4.6875 11.69921875 C-5.3371875 12.83810547 -5.3371875 12.83810547 -6 14 C-6.33 14 -6.66 14 -7 14 C-6.63091483 6.74132492 -6.63091483 6.74132492 -3.5 3.0625 C-2.675 2.381875 -1.85 1.70125 -1 1 C-0.67 0.67 -0.34 0.34 0 0 Z " fill="#D48D66" transform="translate(69,93)"/>
<path d="M0 0 C1.35439668 2.70879335 1.06501451 5.00933268 1 8 C-1.64738916 9.4606285 -2.89448334 10 -6 10 C-5.67 8.02 -5.34 6.04 -5 4 C-4.01 5.485 -4.01 5.485 -3 7 C-2.01 4.69 -1.02 2.38 0 0 Z " fill="#1C1F19" transform="translate(19,89)"/>
<path d="M0 0 C2.86724686 0.57344937 3.8614515 0.8614515 6 3 C3 5 3 5 0.3125 4.625 C-0.450625 4.41875 -1.21375 4.2125 -2 4 C-1.34 2.68 -0.68 1.36 0 0 Z " fill="#BB1F12" transform="translate(133,142)"/>
<path d="M0 0 C0.61875 0.28875 1.2375 0.5775 1.875 0.875 C2.205 1.865 2.535 2.855 2.875 3.875 C0.26917629 4.80565133 -0.76698224 5.02417407 -3.375 3.9375 C-3.9525 3.586875 -4.53 3.23625 -5.125 2.875 C-2.69803371 -0.15870787 -2.69803371 -0.15870787 0 0 Z " fill="#BC1D10" transform="translate(100.125,153.125)"/>
<path d="M0 0 C2.97 0 5.94 0 9 0 C9 0.33 9 0.66 9 1 C7.35 1.33 5.7 1.66 4 2 C4.33 2.66 4.66 3.32 5 4 C2.36 4 -0.28 4 -3 4 C-2.34 3.67 -1.68 3.34 -1 3 C-0.67 2.01 -0.34 1.02 0 0 Z " fill="#3A2B2B" transform="translate(67,66)"/>
<path d="M0 0 C4.41889613 1.35021826 6.34345343 3.26115668 9 7 C6.75 6.875 6.75 6.875 4 6 C1.6875 2.9375 1.6875 2.9375 0 0 Z " fill="#4D3B3B" transform="translate(26,41)"/>
<path d="M0 0 C1.32 0.99 2.64 1.98 4 3 C3.67 4.98 3.34 6.96 3 9 C2.34 9 1.68 9 1 9 C0.67 6.03 0.34 3.06 0 0 Z " fill="#941B15" transform="translate(120,206)"/>
<path d="M0 0 C0.66 0 1.32 0 2 0 C2.66 3.3 3.32 6.6 4 10 C0.71245925 8.35622962 0.12314476 5.36943428 -1 2 C-0.67 1.34 -0.34 0.68 0 0 Z " fill="#463737" transform="translate(7,36)"/>
<path d="M0 0 C0.66 0 1.32 0 2 0 C3.625 2.5 3.625 2.5 5 5 C3.02 5.99 3.02 5.99 1 7 C0.67 6.01 0.34 5.02 0 4 C-0.66 3.34 -1.32 2.68 -2 2 C-1.34 2 -0.68 2 0 2 C0 1.34 0 0.68 0 0 Z " fill="#BF7655" transform="translate(97,145)"/>
<path d="M0 0 C1.32 0.66 2.64 1.32 4 2 C1.69 3.65 -0.62 5.3 -3 7 C-3.33 6.01 -3.66 5.02 -4 4 C-2.68 2.68 -1.36 1.36 0 0 Z " fill="#291713" transform="translate(78,131)"/>
<path d="M0 0 C0 0.99 0 1.98 0 3 C-2.64 3 -5.28 3 -8 3 C-8 2.34 -8 1.68 -8 1 C-5.07175348 0.02391783 -3.04386724 -0.08226668 0 0 Z " fill="#3F2E30" transform="translate(97,51)"/>
<path d="M0 0 C3.6875 -0.25 3.6875 -0.25 7 0 C7 0.66 7 1.32 7 2 C3.7 2.66 0.4 3.32 -3 4 C-2.01 2.68 -1.02 1.36 0 0 Z " fill="#403332" transform="translate(117,24)"/>
<path d="M0 0 C2.36964362 2.15422147 3.57980514 4.15961028 5 7 C6.5412312 8.70921589 6.5412312 8.70921589 8 10 C4.12539202 8.74337038 2.0139745 7.60395437 0 4 C0 2.68 0 1.36 0 0 Z " fill="#251717" transform="translate(8,43)"/>
<path d="M0 0 C0.33 0.66 0.66 1.32 1 2 C2.97888961 2.72693904 4.97954558 3.39816251 7 4 C7 4.66 7 5.32 7 6 C4.03 5.505 4.03 5.505 1 5 C0.67 3.35 0.34 1.7 0 0 Z " fill="#774734" transform="translate(73,96)"/>
<path d="M0 0 C0.25 2.25 0.25 2.25 0 5 C-2 7.3125 -2 7.3125 -4 9 C-4.368 3.48 -4.368 3.48 -2.5625 1.125 C-1 0 -1 0 0 0 Z " fill="#8A5D4F" transform="translate(45,57)"/>
<path d="M0 0 C1.12588014 0.95729916 2.2506715 1.91587895 3.375 2.875 C4.00148438 3.40867188 4.62796875 3.94234375 5.2734375 4.4921875 C6.55836651 5.61432007 7.79371975 6.79371975 9 8 C7.02 8 5.04 8 3 8 C0 2.25 0 2.25 0 0 Z " fill="#493839" transform="translate(68,42)"/>
<path d="M0 0 C6.52307692 0.61538462 6.52307692 0.61538462 8.9375 2.5625 C9.288125 3.036875 9.63875 3.51125 10 4 C8.02 3.34 6.04 2.68 4 2 C3.67 2.66 3.34 3.32 3 4 C2.01 2.68 1.02 1.36 0 0 Z " fill="#1B1C17" transform="translate(105,7)"/>
<path d="M0 0 C1.32 0 2.64 0 4 0 C4 0.99 4 1.98 4 3 C2.02 3.33 0.04 3.66 -2 4 C-1.34 2.68 -0.68 1.36 0 0 Z " fill="#AA1B10" transform="translate(135,212)"/>
<path d="M0 0 C0 0.99 0 1.98 0 3 C-3.62326739 4.2077558 -4.64146369 3.54311128 -8 2 C-8 1.67 -8 1.34 -8 1 C-2.25 0 -2.25 0 0 0 Z " fill="#10100E" transform="translate(154,89)"/>
<path d="M0 0 C0.33 0.99 0.66 1.98 1 3 C-1.3125 4.5625 -1.3125 4.5625 -4 6 C-4.99 5.67 -5.98 5.34 -7 5 C-4.69 3.35 -2.38 1.7 0 0 Z " fill="#3D2E2F" transform="translate(105,45)"/>
<path d="M0 0 C-2.39509338 2.89932357 -4.31245243 3.50168276 -8 4 C-7 1 -7 1 -4.5625 -0.25 C-2 -1 -2 -1 0 0 Z " fill="#252721" transform="translate(152,40)"/>
<path d="M0 0 C2.475 0.495 2.475 0.495 5 1 C3.68 2.32 2.36 3.64 1 5 C0.67 3.35 0.34 1.7 0 0 Z " fill="#423333" transform="translate(75,34)"/>
</svg>
